<svg width="107" height="113" viewBox="0 0 107 113" fill="none" xmlns="http://www.w3.org/2000/svg">
<path d="M106.197 93.5427C106.197 93.5427 75.4004 18.2341 32.4548 -12.0038C17.8842 -22.2656 4.73842 -26.7719 -6.27362 -28.2374C-29.2322 -31.3007 -47.1004 -9.09628 -38.9473 12.3557C-35.0378 22.6436 -27.6602 34.3106 -14.2887 46.0668C25.1174 80.7065 106.197 93.5427 106.197 93.5427Z" fill="#1A4143"/>
<path d="M-3.83348 8.92356C-0.981076 11.1602 1.86471 13.3982 4.71712 15.6349C2.20871 28.6996 -0.306334 41.7657 -2.81325 54.837C-2.45914 55.0758 -2.10503 55.3147 -1.74581 55.5455C0.756921 42.5164 3.25965 29.4874 5.76238 16.4583C8.45429 18.5719 11.1543 20.6905 13.8462 22.8041C11.647 35.3401 8.88826 47.7717 5.57415 60.0567C5.92583 60.2548 6.27238 60.4609 6.62405 60.659C9.93339 48.4438 12.6904 36.0951 14.8996 23.6327C17.4894 25.6654 20.0792 27.6982 22.6691 29.7309C20.0656 41.5093 17.4607 53.2811 14.8573 65.0594C15.2191 65.2415 15.581 65.4236 15.9495 65.6042C18.5329 53.9197 21.1213 42.2272 23.7047 30.5427C26.421 32.6716 29.1321 34.8084 31.8484 36.9373C30.3757 48.1306 28.4431 59.2596 26.0431 70.2916C26.4137 70.4511 26.7776 70.6121 27.1467 70.7651C29.5261 59.8546 31.4528 48.8507 32.9262 37.7811C35.7202 39.9755 38.5142 42.1699 41.3148 44.3628C39.8531 54.3979 37.958 64.3628 35.6286 74.2235C35.9962 74.3699 36.3688 74.5084 36.7364 74.6548C39.0401 64.9236 40.9257 55.0984 42.3845 45.2016C44.6599 46.9868 46.9368 48.7785 49.2122 50.5638C48.2622 59.6816 46.8966 68.7462 45.116 77.7297C45.4937 77.8602 45.8649 77.9921 46.2427 78.1225C48.0021 69.2881 49.3562 60.3843 50.3078 51.4243C53.084 53.602 55.8602 55.7796 58.6364 57.9573C58.574 65.8279 57.6594 73.6515 55.9145 81.3131C56.2893 81.4304 56.6641 81.5478 57.0455 81.6637C58.7552 74.1817 59.6725 66.5502 59.7985 58.8652C60.7417 59.6078 61.6915 60.349 62.6347 61.0916C62.7146 61.2873 62.8827 61.4431 63.1274 61.4789C63.8146 62.0162 64.4951 62.555 65.1823 63.0923C65.5708 69.9628 64.7094 76.8115 62.6371 83.3547C63.017 83.464 63.3903 83.5748 63.7701 83.6841C65.7692 77.3359 66.662 70.7142 66.4059 64.0555C68.4868 65.6908 70.5661 67.3194 72.647 68.9547C72.5129 74.5844 71.9595 80.1753 70.9889 85.7064C71.3739 85.8077 71.7523 85.9105 72.1373 86.0119C73.0758 80.6736 73.6251 75.2762 73.7929 69.8524C75.728 71.3682 77.658 72.8921 79.5931 74.4079C78.9096 78.1078 78.2312 81.7998 77.5477 85.4997C77.4377 86.1086 77.3161 86.727 77.2062 87.3359C77.5897 87.4307 77.9665 87.5269 78.3434 87.6232C78.509 86.7131 78.6909 85.8132 78.8595 84.9162C79.4574 81.6892 80.0487 78.4635 80.6465 75.2364C82.285 76.5215 83.9154 77.8014 85.5539 79.0864C85.5226 82.4783 85.3513 85.8664 85.0238 89.2406C85.4138 89.3339 85.8024 89.4207 86.1844 89.509C86.4925 86.3523 86.6725 83.1824 86.7191 80.0074C88.6298 81.508 90.539 83.002 92.4431 84.504C92.3514 86.6087 92.166 88.6996 91.8738 90.7795C92.269 90.8648 92.6561 90.9451 93.0365 91.0268C93.2946 89.1608 93.479 87.2765 93.5794 85.39C94.7333 86.2928 95.8807 87.1971 97.0346 88.0999C96.9873 89.3418 96.9465 90.5822 96.8976 91.8176C97.2994 91.9015 97.685 91.9752 98.064 92.0503C98.1001 91.031 98.1362 90.0118 98.1739 88.999C99.8967 90.3481 101.613 91.6987 103.337 93.0544C105.187 93.385 106.197 93.5419 106.197 93.5419C106.197 93.5419 105.825 92.6257 105.101 90.9614C103.182 89.4558 101.263 87.9502 99.3441 86.4445C100.574 86.4707 101.796 86.4022 103.008 86.2603C102.841 85.8979 102.673 85.5289 102.501 85.1469C100.938 85.3039 99.351 85.3285 97.7493 85.1981C96.4089 84.1504 95.0736 83.0947 93.7332 82.047C96.1305 82.0993 98.5009 81.9442 100.844 81.5817C100.677 81.2193 100.504 80.8583 100.327 80.4842C97.8517 80.8481 95.3288 80.9747 92.7978 80.8555C92.6284 80.8445 92.4954 80.9011 92.3898 80.9862C89.9265 79.0496 87.4647 77.1195 85.0013 75.1828C89.099 74.9792 93.1833 74.6271 97.2507 74.1412C97.0689 73.7751 96.8856 73.4025 96.6957 73.0314C92.3494 73.5441 87.9801 73.8967 83.601 74.0864C81.3855 72.3499 79.1685 70.6069 76.9531 68.8705C82.5778 68.504 88.1974 67.9942 93.7933 67.352C93.6034 66.9808 93.4084 66.6176 93.2104 66.2414C87.3487 66.9075 81.467 67.4266 75.5705 67.7908C72.8542 65.6619 70.1364 63.5265 67.4201 61.3976C74.8889 61.1566 82.3405 60.6303 89.7633 59.8283C89.5601 59.46 89.357 59.0918 89.1523 58.717C81.4557 59.5378 73.7242 60.0566 65.9792 60.2757C64.1883 58.8727 62.3959 57.4632 60.605 56.0602C68.7021 54.4429 76.7992 52.8257 84.8963 51.2085C84.6896 50.8548 84.4828 50.5011 84.2746 50.1408C75.984 51.7936 67.6949 53.4529 59.3977 55.1071C55.9247 52.3805 52.4516 49.6539 48.9786 46.9273C59.5784 46.5432 70.1441 45.5887 80.6277 44.0674C80.4047 43.7035 80.1832 43.3461 79.9601 42.9822C69.2226 44.518 58.405 45.4658 47.5524 45.809C44.3693 43.3147 41.1929 40.8189 38.0083 38.318C49.6256 36.2247 61.2496 34.1299 72.8669 32.0367C72.6256 31.6837 72.3908 31.3292 72.151 30.9828C60.36 33.1072 48.5691 35.2317 36.7796 37.3627C35.5657 36.4112 34.3518 35.4596 33.1446 34.5065C31.6681 33.3511 30.1967 32.1877 28.7202 31.0322C41.3931 28.4804 54.0727 25.9272 66.7456 23.3754C66.4925 23.0319 66.2379 22.6818 65.9782 22.3397C53.1597 24.9234 40.333 27.502 27.5144 30.0857C25.239 28.3005 22.9636 26.5153 20.6882 24.7301C33.3898 20.8855 46.0914 17.0408 58.7915 13.1897C58.5215 12.8636 58.2516 12.5375 57.9751 12.2128C45.2419 16.0713 32.5072 19.9231 19.774 23.7816C19.7027 23.8041 19.6477 23.8368 19.5926 23.8695C16.34 21.3147 13.0889 18.7665 9.83625 16.2117C23.7046 12.4209 37.5745 8.63654 51.4429 4.84566C51.1399 4.52683 50.8353 4.20144 50.5323 3.88261C36.5845 7.69089 22.6367 11.4992 8.69041 15.314C6.25297 13.3992 3.81704 11.491 1.3796 9.57615C14.3699 4.45046 27.3653 -0.683232 40.3556 -5.80892C40.0174 -6.0994 39.6807 -6.38333 39.3374 -6.66581C26.3287 -1.52922 13.312 3.60227 0.303329 8.73886C-2.28799 6.69956 -4.88443 4.66825 -7.47575 2.62895C4.43801 -3.63668 16.7002 -9.23568 29.2528 -14.1484C28.8433 -14.4164 28.442 -14.6793 28.0355 -14.9341C15.5536 -10.0163 3.36058 -4.41867 -8.48396 1.84554C-12.6945 -1.45551 -16.9 -4.76456 -21.1105 -8.0656C-10.4568 -13.7041 0.46121 -18.8294 11.6009 -23.4461C11.065 -23.6589 10.5388 -23.86 10.006 -24.0596C-0.871924 -19.5141 -11.5312 -14.4729 -21.9337 -8.95149C-21.9954 -8.91733 -22.0489 -8.87807 -22.0928 -8.82716C-23.8659 -10.2134 -25.6339 -11.6076 -27.407 -12.9939C-19.1069 -17.8617 -10.8053 -22.723 -2.51181 -27.5893C-3.10896 -27.7061 -3.7031 -27.8097 -4.28911 -27.9083C-12.3257 -23.1945 -20.3624 -18.4808 -28.4005 -13.7736C-30.1508 -15.1511 -31.9076 -16.5272 -33.6563 -17.8981C-34.2489 -17.2109 -34.8125 -16.4888 -35.3451 -15.7528C-34.8606 -15.3706 -34.3761 -14.9883 -33.8915 -14.6061C-35.8752 -6.47243 -37.8588 1.66122 -39.844 9.78833C-39.6447 10.5014 -39.4109 11.2138 -39.1557 11.9284C-37.059 3.35032 -34.9689 -5.22636 -32.8737 -13.811C-31.3098 -12.5784 -29.7409 -11.3538 -28.1771 -10.1212C-30.5673 0.0486413 -32.9494 10.2236 -35.3397 20.3934C-35.0687 20.9051 -34.783 21.4203 -34.4906 21.9341C-32.0458 11.5184 -29.6025 1.09612 -27.1511 -9.32106C-24.7218 -7.41135 -22.294 -5.50819 -19.8647 -3.59847C-22.7849 7.89159 -25.6986 19.3802 -28.6188 30.8703C-28.3191 31.2655 -28.0193 31.6607 -27.7048 32.0596C-24.7521 20.4386 -21.8061 8.81903 -18.8519 -2.79542C-16.7304 -1.13471 -14.614 0.534015 -12.4924 2.19473C-12.4325 2.24351 -12.3741 2.28574 -12.3142 2.33452C-14.7985 14.7197 -17.9354 26.959 -21.7059 39.0139C-21.4014 39.3393 -21.0902 39.6632 -20.7725 39.9857C-16.9647 27.8814 -13.7986 15.5875 -11.277 3.15286C-11.0048 3.36837 -10.7326 3.58388 -10.4618 3.79283C-10.4136 3.85106 -10.3537 3.89984 -10.2917 3.92752C-8.51706 5.32031 -6.74244 6.7131 -4.96631 8.11244C-6.6411 21.5654 -8.97111 34.9212 -11.9359 48.1479C-11.5941 48.4239 -11.2574 48.7078 -10.909 48.9823C-7.87591 35.72 -5.53777 22.3692 -3.83348 8.92356Z" fill="#2F8C91"/>
</svg>
