<svg width="230" height="73" viewBox="0 0 230 73" fill="none" xmlns="http://www.w3.org/2000/svg">
<path d="M229.732 27.8734C229.732 27.8734 109.528 18.606 41.1759 54.7677C17.9819 67.0348 3.36451 81.2217 -5.81449 94.6216C-24.9618 122.553 -7.22158 160.432 26.6124 163.879C42.8381 165.533 63.1728 163.57 87.563 153.847C159.433 125.191 229.732 27.8734 229.732 27.8734Z" fill="#2F8C91"/>
<path d="M45.1366 115.831C49.9791 113.579 54.8191 111.337 59.6616 109.085C75.3568 120.931 91.0495 132.787 106.754 144.635C107.304 144.33 107.854 144.025 108.396 143.708C92.7444 131.893 77.0928 120.078 61.4412 108.263C66.015 106.14 70.6008 104.009 75.1746 101.886C90.3709 112.981 105.061 124.738 119.192 137.123C119.686 136.795 120.187 136.478 120.681 136.149C106.64 123.817 92.0585 112.116 76.9663 101.056C81.3657 99.0127 85.7651 96.9696 90.1645 94.9264C104.09 106.052 118.005 117.175 131.93 128.301C132.41 127.948 132.889 127.596 133.371 127.234C119.557 116.196 105.736 105.146 91.9223 94.1087C96.5324 91.9637 101.15 89.8306 105.76 87.6856C119.651 96.9526 133.155 106.777 146.223 117.148C146.678 116.769 147.131 116.4 147.576 116.019C134.656 105.755 121.314 96.0207 107.588 86.8339C112.336 84.6306 117.084 82.4272 121.834 80.2143C134.195 88.7068 146.179 97.7185 157.738 107.228C158.174 106.845 158.602 106.45 159.038 106.067C147.634 96.6755 135.83 87.7679 123.65 79.3699C127.515 77.5743 131.389 75.781 135.253 73.9853C146.733 81.2086 157.868 88.9388 168.624 97.1571C169.045 96.7501 169.464 96.3526 169.885 95.9455C159.314 87.8528 148.384 80.2432 137.115 73.1215C141.829 70.9303 146.543 68.7392 151.257 66.548C161.664 71.7952 171.449 78.1228 180.473 85.4268C180.875 85.0151 181.277 84.6034 181.681 84.1821C172.873 77.0418 163.345 70.8368 153.226 65.6285C154.831 64.8859 156.439 64.1337 158.044 63.3912C158.357 63.4154 158.674 63.2985 158.882 63.0029C160.047 62.4594 161.209 61.9255 162.373 61.382C171.749 65.3847 180.274 71.003 187.599 78C187.994 77.5764 188.386 77.1623 188.78 76.7387C181.666 69.9652 173.463 64.4549 164.456 60.4186C167.993 58.7782 171.521 57.1355 175.058 55.4951C182.443 59.365 189.502 63.7562 196.206 68.6521C196.594 68.2165 196.979 67.7906 197.366 67.355C190.896 62.6275 184.092 58.3686 177.003 54.59C180.286 53.0614 183.576 51.5446 186.859 50.0159C191.322 53.3357 195.777 56.6436 200.24 59.9634C200.976 60.5063 201.717 61.0708 202.453 61.6138C202.831 61.1759 203.206 60.7477 203.581 60.3194C202.482 59.5061 201.407 58.6783 200.327 57.8696C196.436 54.9719 192.542 52.0838 188.651 49.186C191.433 47.8927 194.203 46.6066 196.985 45.3133C201.467 47.5804 205.852 50.0275 210.116 52.6692C210.496 52.2217 210.867 51.772 211.235 51.3318C207.247 48.8581 203.157 46.543 198.973 44.3984C202.22 42.8915 205.457 41.3822 208.702 39.8849C211.435 41.386 214.089 43.0001 216.658 44.7463C217.031 44.2869 217.392 43.8348 217.75 43.3923C215.442 41.831 213.062 40.3539 210.624 38.9848C212.58 38.0725 214.534 37.1697 216.491 36.2574C218.108 37.1343 219.728 38.0016 221.336 38.8761C221.711 38.4072 222.062 37.9527 222.411 37.5079C221.081 36.7918 219.752 36.0757 218.433 35.3619C221.355 34.0007 224.275 32.649 227.207 31.2901C228.861 29.0952 229.732 27.8814 229.732 27.8814C229.732 27.8814 228.272 27.7642 225.587 27.6168C222.328 29.1309 219.069 30.6451 215.81 32.1592C216.653 30.5724 217.365 28.9339 217.972 27.2601C217.381 27.2401 216.781 27.2177 216.161 27.1907C215.343 29.3323 214.333 31.4178 213.108 33.4209C210.837 34.4812 208.559 35.5297 206.287 36.59C207.931 33.498 209.282 30.3051 210.34 27.0112C209.75 26.9912 209.156 26.9807 208.544 26.9656C207.401 30.4323 205.912 33.8055 204.091 37.0278C203.965 37.2416 203.953 37.4522 203.997 37.6456C199.808 39.5869 195.629 41.5306 191.44 43.4718C193.861 37.9945 196.077 32.4372 198.103 26.8141C197.498 26.811 196.883 26.8054 196.265 26.8095C194.091 32.8139 191.69 38.7432 189.065 44.5783C185.305 46.3278 181.535 48.075 177.775 49.8245C180.983 42.2488 183.997 34.5858 186.82 26.8668C186.203 26.8708 185.592 26.8868 184.963 26.8981C181.997 34.9793 178.823 42.9902 175.433 50.9187C170.823 53.0637 166.204 55.2064 161.594 57.3514C166.179 47.4534 170.375 37.3905 174.186 27.1842C173.563 27.2074 172.941 27.2307 172.309 27.2516C168.343 37.8273 163.954 48.2503 159.158 58.4942C156.119 59.9088 153.071 61.3211 150.032 62.7357C153.204 51.115 156.375 39.4944 159.547 27.8737C158.941 27.9112 158.336 27.9486 157.721 27.9838C154.47 39.8801 151.228 51.7787 147.974 63.6846C142.073 66.4242 136.173 69.1638 130.272 71.9034C136.725 57.8282 142.397 43.4233 147.263 28.7534C146.634 28.8054 146.014 28.8597 145.385 28.9117C140.371 43.9223 134.524 58.6513 127.851 73.0292C122.449 75.5431 117.05 78.0473 111.638 80.5588C116.49 64.035 121.344 47.5016 126.196 30.9778C125.569 31.0609 124.944 31.1344 124.327 31.2198C119.402 47.9904 114.478 64.7611 109.563 81.5341C107.503 82.4926 105.442 83.4511 103.384 84.3999C100.881 85.567 98.37 86.7222 95.8664 87.8893C100.803 69.688 105.742 51.4772 110.678 33.2759C110.056 33.3804 109.424 33.4827 108.799 33.5968C103.809 52.009 98.8077 70.4284 93.818 88.8405C89.9537 90.6362 86.0894 92.4318 82.2251 94.2274C85.4641 75.1402 88.7032 56.053 91.9326 36.9634C91.3224 37.1014 90.7122 37.2394 90.0997 37.3869C86.8582 56.5244 83.607 75.6596 80.3656 94.797C80.3486 94.9048 80.3559 94.998 80.3632 95.0913C74.8354 97.6562 69.3174 100.223 63.7897 102.788C67.8665 82.2148 71.9529 61.6436 76.0297 41.0701C75.4074 41.256 74.7755 41.4396 74.1532 41.6255C70.0474 62.314 65.9416 83.0025 61.8455 103.693C57.7027 105.615 53.5696 107.539 49.4269 109.461C51.155 89.1568 52.8759 68.8404 54.604 48.5359C53.9963 48.7862 53.3982 49.039 52.7977 49.3013C51.072 69.6369 49.3342 89.9797 47.6085 110.315C43.1994 112.356 38.7976 114.409 34.3885 116.45C33.8963 96.8009 34.518 77.1352 36.2413 57.5412C35.6166 57.8993 35.004 58.2502 34.3987 58.6131C32.7287 78.1182 32.1506 97.6927 32.6864 117.25C25.5388 120.575 18.3841 123.887 11.2365 127.211C10.7493 109.617 11.1167 92.0154 12.305 74.4583C11.6707 75.0175 11.0581 75.5717 10.4431 76.1355C9.33229 93.3046 9.02293 110.514 9.51985 127.703C9.5247 127.806 9.54165 127.902 9.58039 127.992C6.57563 129.395 3.5636 130.785 0.558829 132.188C-0.451306 118.169 -1.45176 104.152 -2.46431 90.143C-3.0115 90.8452 -3.53932 91.5519 -4.05503 92.2515C-3.07638 105.826 -2.09774 119.4 -1.12879 132.972C-4.10692 134.35 -7.08747 135.738 -10.0559 137.119C-9.53288 138.342 -8.94447 139.551 -8.31732 140.729C-7.49168 140.348 -6.66603 139.967 -5.84038 139.586C3.65373 147.511 13.1478 155.436 22.6323 163.359C23.7098 163.567 24.809 163.73 25.9252 163.866C15.9154 155.502 5.90309 147.147 -4.11646 138.78C-1.45309 137.55 1.20302 136.308 3.86639 135.077C15.7964 144.869 27.7385 154.654 39.6685 164.446C40.5256 164.428 41.3973 164.394 42.2713 164.35C30.0508 154.325 17.8206 144.299 5.60243 134.265C9.73308 132.35 13.854 130.433 17.9847 128.519C31.3191 139.868 44.6559 151.208 57.9903 162.558C58.7118 162.426 59.4334 162.295 60.1694 162.146C46.6825 150.668 33.1931 139.2 19.7159 127.725C23.3139 126.048 26.9191 124.383 30.5171 122.707C30.6212 122.661 30.7156 122.612 30.8197 122.566C45.6287 133.935 59.8154 146.058 73.3411 158.888C73.973 158.704 74.6074 158.511 75.2442 158.308C61.6773 145.398 47.4373 133.2 32.5872 121.751C33.0521 121.537 33.517 121.324 33.9722 121.108C34.0811 121.083 34.1853 121.037 34.2627 120.974C37.2772 119.574 40.2916 118.174 43.3158 116.776C60.0739 127.79 76.2726 139.594 91.8831 152.142C92.4738 151.877 93.0719 151.624 93.6651 151.35C78.0523 138.69 61.8656 126.879 45.1366 115.831Z" fill="#286F7F"/>
</svg>
