<svg width="145" height="73" viewBox="0 0 145 73" fill="none" xmlns="http://www.w3.org/2000/svg">
<path d="M0.318088 56.2346C0.318088 56.2346 58.9903 113.172 110.566 123.956C128.066 127.618 141.932 126.561 152.614 123.557C174.888 117.301 182.278 89.8707 166.133 73.4075C158.39 65.5118 146.912 57.7203 129.907 52.2141C79.7938 35.9929 0.318088 56.2346 0.318088 56.2346Z" fill="#2F8C91"/>
<path d="M135.346 90.4241C131.829 89.4983 128.316 88.5687 124.798 87.643C121.813 74.6651 118.833 61.6834 115.843 48.7001C115.422 48.6208 115.001 48.5415 114.579 48.4716C117.555 61.4145 120.531 74.3573 123.508 87.3002C120.187 86.424 116.856 85.5463 113.535 84.6701C110.48 72.2995 107.98 59.8038 106.048 47.2231C105.646 47.1802 105.245 47.128 104.842 47.0851C106.751 59.5998 109.219 72.0188 112.235 84.3259C109.04 83.4835 105.845 82.6411 102.65 81.7988C100.272 69.9637 97.898 58.134 95.5198 46.299C95.1146 46.2748 94.7094 46.2507 94.2987 46.2304C96.6574 57.9715 99.0146 69.7219 101.373 81.4629C98.0238 80.5823 94.6756 79.6923 91.3261 78.8117C88.1485 67.96 85.4183 56.9856 83.1556 45.9156C82.7515 45.9156 82.3529 45.9116 81.9529 45.917C84.1855 56.8673 86.8705 67.7246 89.9974 78.4631C86.5501 77.553 83.1029 76.643 79.6502 75.7369C76.9309 65.9523 74.6371 56.0608 72.7834 46.0934C72.3874 46.1042 71.99 46.1243 71.594 46.1351C73.4189 55.9735 75.665 65.7331 78.331 75.3898C75.5243 74.6504 72.7136 73.9055 69.9069 73.1661C67.0898 64.4251 64.675 55.5688 62.6733 46.623C62.2744 46.6525 61.881 46.678 61.4822 46.7075C63.443 55.5082 65.8034 64.2123 68.5552 72.8092C65.131 71.9075 61.7068 71.0058 58.2826 70.1041C55.1567 62.8579 52.8307 55.3184 51.3307 47.5996C50.9399 47.6399 50.5491 47.6803 50.1528 47.7245C51.6122 55.2646 53.8582 62.6289 56.8507 69.73C55.6863 69.4211 54.5164 69.1161 53.3519 68.8072C53.1995 68.6591 52.9825 68.5826 52.7439 68.6464C51.897 68.4247 51.0556 68.1992 50.2087 67.9775C47.0742 61.8271 45.0936 55.2031 44.346 48.3812C43.9537 48.4308 43.5669 48.4766 43.1747 48.5263C43.9106 55.1404 45.7705 61.5686 48.6981 67.5769C46.1304 66.8983 43.5666 66.2251 40.9988 65.5465C38.8449 60.3281 37.0908 54.9797 35.7432 49.5216C35.3495 49.5806 34.9612 49.6357 34.5675 49.6948C35.8666 54.9634 37.5462 60.1326 39.586 65.1753C37.2 64.5487 34.8155 63.9127 32.4296 63.2861C31.5594 59.6214 30.6879 55.966 29.8178 52.3013C29.6722 51.6992 29.5336 51.0838 29.388 50.4817C28.9984 50.5462 28.6142 50.6067 28.23 50.6672C28.4463 51.5676 28.6436 52.4651 28.8518 53.3547C29.6092 56.5518 30.372 59.7449 31.1294 62.9419C29.1085 62.4099 27.0972 61.8794 25.0763 61.3474C23.7333 58.2229 22.52 55.0466 21.4555 51.8213C21.0603 51.8897 20.6692 51.9635 20.2836 52.0334C21.2779 55.0514 22.395 58.0309 23.6364 60.9625C21.279 60.3402 18.9256 59.7234 16.5736 59.0972C15.8065 57.1298 15.1307 55.1382 14.5573 53.1144C14.1607 53.1922 13.7736 53.2714 13.392 53.3467C13.9102 55.1608 14.5033 56.9624 15.1743 58.733C13.752 58.3603 12.3351 57.9837 10.9127 57.6111C10.4539 56.4529 9.98954 55.2987 9.53472 54.1459C9.13265 54.2276 8.74961 54.3123 8.37204 54.3929C8.75115 55.3424 9.13027 56.2919 9.50535 57.236C7.38133 56.6785 5.26278 56.1171 3.13474 55.5542C1.30653 55.9812 0.317911 56.236 0.317911 56.236C0.317911 56.236 1.02857 56.93 2.36551 58.1709C4.73244 58.7946 7.09938 59.4183 9.46631 60.042C8.32889 60.5037 7.23697 61.0491 6.18392 61.658C6.48352 61.9245 6.78715 62.1965 7.09885 62.4793C8.46753 61.7179 9.9114 61.0687 11.4316 60.5558C13.0833 60.9878 14.7336 61.4291 16.3853 61.861C14.1678 62.7598 12.0589 63.8382 10.0586 65.0962C10.3581 65.3627 10.6632 65.6254 10.9764 65.8988C13.0969 64.5875 15.3572 63.4749 17.7242 62.5849C17.8839 62.5281 17.9828 62.4236 18.0451 62.3038C21.0852 63.108 24.1212 63.9067 27.1613 64.7108C23.4895 66.5159 19.8899 68.4518 16.36 70.5039C16.6746 70.768 16.9932 71.0375 17.3173 71.303C21.0919 69.1162 24.9524 67.0672 28.8877 65.1639C31.6197 65.8822 34.3558 66.6059 37.0878 67.3242C32.0827 69.8818 27.1404 72.5687 22.2733 75.3679C22.5974 75.6334 22.9229 75.8896 23.2565 76.1566C28.3574 73.2307 33.5361 70.4316 38.7911 67.7689C42.1407 68.6496 45.4943 69.5356 48.8438 70.4162C42.0986 73.5868 35.4845 77.0124 29.0082 80.6796C29.3433 80.9372 29.6783 81.1949 30.0174 81.4579C36.7369 77.6654 43.6105 74.1361 50.6177 70.8766C52.8259 71.4566 55.0381 72.0421 57.2463 72.6221C50.4819 77.3036 43.7176 81.985 36.9533 86.6665C37.2858 86.9094 37.6182 87.1522 37.9547 87.4005C44.8819 82.6101 51.8051 77.8142 58.7378 73.0198C63.0224 74.15 67.307 75.2802 71.5917 76.4104C62.0357 80.9488 52.7417 85.997 43.7522 91.5329C44.1036 91.7787 44.4511 92.0191 44.8026 92.265C54.019 86.6155 63.5464 81.4739 73.3506 76.8732C77.2756 77.9049 81.1951 78.9404 85.1242 79.9775C75.3272 86.4859 65.5248 92.9982 55.7279 99.5067C56.0917 99.7352 56.4501 99.9677 56.81 100.191C66.7534 93.5853 76.6968 86.9797 86.6362 80.3687C88.1331 80.7624 89.6301 81.1562 91.1216 81.5538C92.9417 82.0309 94.7602 82.5174 96.5802 82.9944C86.0016 90.3404 75.4175 97.6903 64.8389 105.036C65.2097 105.252 65.5845 105.472 65.9608 105.684C76.6599 98.2507 87.3686 90.8194 98.0677 83.3867C100.874 84.1261 103.681 84.8655 106.488 85.6049C96.4057 94.1484 86.3236 102.692 76.2456 111.241C76.6248 111.433 77.004 111.626 77.3886 111.815C87.494 103.246 97.6035 94.6828 107.709 86.1142C107.765 86.0654 107.802 86.0136 107.839 85.9619C111.853 87.0215 115.862 88.0756 119.875 89.1352C108.702 98.0902 97.5255 107.04 86.3527 115.995C86.7593 116.168 87.1699 116.346 87.5764 116.519C98.8149 107.516 110.053 98.5141 121.288 89.5064C124.295 90.3007 127.299 91.0896 130.306 91.884C120.478 101.717 110.648 111.559 100.82 121.392C101.247 121.525 101.67 121.653 102.099 121.776C111.94 111.926 121.79 102.077 131.631 92.2272C134.83 93.075 138.03 93.9134 141.229 94.7612C132.848 105.215 123.878 115.195 114.364 124.659C114.848 124.743 115.322 124.826 115.797 124.899C125.244 115.458 134.151 105.507 142.47 95.0818C147.662 96.4479 152.853 97.8232 158.046 99.1893C150.566 108.57 142.636 117.584 134.297 126.219C134.874 126.203 135.437 126.18 136.006 126.152C144.134 117.686 151.861 108.851 159.158 99.677C159.201 99.6213 159.234 99.5641 159.254 99.5001C161.439 100.072 163.623 100.653 165.808 101.225C160.172 108.969 154.532 116.707 148.902 124.448C149.496 124.319 150.083 124.179 150.659 124.038C156.116 116.54 161.573 109.041 167.033 101.548C169.194 102.12 171.36 102.689 173.517 103.256C173.782 102.392 174.006 101.507 174.196 100.621C173.598 100.462 172.999 100.302 172.401 100.143C170.929 91.8968 169.457 83.6506 167.989 75.4098C167.518 74.8342 167.015 74.2729 166.493 73.718C168.041 82.4167 169.594 91.1114 171.147 99.8155C169.215 99.3021 167.283 98.7981 165.352 98.2847C163.429 88.0097 161.496 77.7332 159.573 67.4581C159.118 67.0957 158.648 66.7358 158.172 66.3798C160.144 76.902 162.121 87.4296 164.088 97.9557C161.09 97.1629 158.096 96.3754 155.098 95.5825C153.127 83.8869 151.15 72.1951 149.178 60.4995C148.744 60.2552 148.309 60.011 147.86 59.7692C149.855 71.5978 151.855 83.4225 153.845 95.2457C151.23 94.5597 148.616 93.8644 146.001 93.1785C145.926 93.1574 145.856 93.1417 145.781 93.1206C143.048 80.7758 140.972 68.3071 139.551 55.7574C139.141 55.5791 138.725 55.4048 138.303 55.2344C139.71 67.8442 141.781 80.3744 144.5 92.7793C144.163 92.6891 143.827 92.5989 143.494 92.5141C143.426 92.4797 143.352 92.4586 143.284 92.4577C141.095 91.8806 138.905 91.3034 136.712 90.7209C132.806 77.7161 129.539 64.5416 126.906 51.2349C126.482 51.1167 126.058 50.9892 125.628 50.8749C128.213 64.2413 131.47 77.4143 135.346 90.4241Z" fill="#286F7F"/>
</svg>
