<svg width="140" height="73" viewBox="0 0 140 73" fill="none" xmlns="http://www.w3.org/2000/svg">
<path d="M107.68 3.8618C107.68 3.8618 16.2752 19.4697 -19.1057 60.1975C-31.1121 74.0223 -36.0909 87.6949 -37.4181 99.7306C-40.1955 124.833 -12.08 150.602 13.9785 146.854C26.4802 145.057 40.5294 139.706 54.4327 127.614C95.3808 91.9985 107.68 3.8618 107.68 3.8618Z" fill="#BAE3DD"/>
<path d="M8.23868 106.415C10.8748 103.77 13.4983 101.125 16.1344 98.4796C32.3295 104.622 48.5322 110.771 64.7272 116.913C65.0072 116.577 65.2796 116.235 65.552 115.892C49.3973 109.764 33.2426 103.635 17.0955 97.5135C19.5803 95.0119 22.0776 92.5108 24.5624 90.0092C40.0958 95.6732 55.521 101.929 70.7902 108.786C71.0247 108.441 71.2592 108.097 71.4887 107.759C56.3079 100.936 40.9711 94.6848 25.5336 89.0315C27.92 86.6276 30.319 84.2243 32.7053 81.8203C47.3175 87.7409 61.9373 93.6679 76.5495 99.5885C76.7613 99.225 76.968 98.8673 77.1722 98.4974C62.6686 92.6183 48.165 86.7392 33.6614 80.86C36.1739 78.3416 38.6738 75.8226 41.1863 73.3043C55.0352 77.807 68.8188 82.8071 82.5118 88.3031C82.6908 87.932 82.8748 87.5551 83.0538 87.1839C69.5148 81.7376 55.8827 76.7751 42.1903 72.3041C44.7684 69.7105 47.3515 67.1112 49.9372 64.524C62.3596 68.7162 74.7117 73.3812 86.9606 78.5115C87.1194 78.1334 87.2832 77.7494 87.442 77.3713C75.3623 72.3035 63.1768 67.6888 50.9311 63.5354C53.0349 61.4252 55.1312 59.3086 57.2351 57.1984C68.5084 60.5809 79.7214 64.4248 90.8641 68.7114C91.0078 68.3205 91.1514 67.9296 91.3026 67.5451C80.3543 63.3222 69.3205 59.5292 58.2491 56.1866C60.8121 53.6104 63.375 51.0342 65.938 48.458C75.6328 50.5277 85.3054 53.543 94.8197 57.4488C94.9507 57.0573 95.0741 56.6594 95.2051 56.2678C85.913 52.4391 76.4827 49.4779 67.0076 47.3826C67.8804 46.5027 68.7482 45.6285 69.6286 44.755C69.8633 44.7121 70.0576 44.5648 70.0826 44.2948C70.7133 43.6623 71.349 43.024 71.9796 42.3915C80.4294 43.7013 88.8952 46.4106 97.0413 50.4066C97.1648 50.0086 97.2756 49.6101 97.399 49.2121C89.4928 45.3484 81.2995 42.6584 73.1123 41.2589C75.0345 39.3268 76.9517 37.4004 78.8739 35.4682C85.8117 37.0481 92.7222 39.0968 99.5748 41.5889C99.6831 41.1781 99.7939 40.7796 99.9097 40.3752C93.2919 37.9609 86.6314 35.9726 79.9334 34.4045C81.7219 32.6105 83.5104 30.8165 85.2863 29.0219C89.864 30.728 94.4544 32.4346 99.0321 34.1407C99.7896 34.4187 100.55 34.709 101.307 34.987C101.41 34.582 101.514 34.1771 101.612 33.7779C100.488 33.3615 99.367 32.9271 98.256 32.5112C94.254 31.0201 90.2595 29.5354 86.2575 28.0443C87.766 26.5261 89.2745 25.0078 90.783 23.4896C94.9664 24.3806 99.1424 25.4461 103.306 26.6617C103.406 26.2446 103.495 25.8269 103.585 25.4213C99.6792 24.2725 95.7785 23.2686 91.8577 22.4085C93.626 20.6377 95.3817 18.8662 97.1501 17.0954C99.743 17.7281 102.328 18.4749 104.904 19.3238C104.992 18.9061 105.08 18.4883 105.158 18.0822C102.843 17.3122 100.522 16.6386 98.1995 16.0431C99.264 14.9736 100.329 13.904 101.393 12.8344C102.918 13.1981 104.451 13.5681 105.98 13.926C106.066 13.4961 106.141 13.0777 106.219 12.6715C104.965 12.3753 103.707 12.0669 102.453 11.7707C104.044 10.1721 105.631 8.5793 107.223 6.98074C107.534 4.96412 107.68 3.86187 107.68 3.86187C107.68 3.86187 106.57 4.04895 104.553 4.44514C102.779 6.22177 101.014 8.00479 99.2352 9.7872C99.2166 8.40564 99.0769 7.01215 98.8487 5.61436C98.4121 5.70765 97.9628 5.80033 97.4984 5.91035C97.7672 7.71407 97.8593 9.50918 97.7646 11.2771C96.5235 12.5189 95.295 13.7614 94.0538 15.0032C94.0142 12.3184 93.717 9.59687 93.1699 6.87525C92.7358 6.98072 92.2941 7.0798 91.8398 7.17825C92.3945 10.057 92.6615 12.9338 92.618 15.7593C92.6131 15.946 92.6864 16.1184 92.79 16.256C90.5172 18.5449 88.2367 20.8274 85.9639 23.1163C85.5366 18.4471 84.9301 13.7571 84.1495 9.04057C83.7103 9.15183 83.2585 9.26246 82.8093 9.38529C83.6306 14.4173 84.2524 19.4216 84.6723 24.416C82.6265 26.4748 80.5807 28.5335 78.5323 30.5801C77.8312 24.1432 76.9636 17.686 75.9368 11.2151C75.4876 11.3379 75.051 11.4613 74.5967 11.5899C75.6741 18.3648 76.5672 25.1246 77.2685 31.8631C74.756 34.3815 72.2511 36.9062 69.7436 39.4188C69.1244 30.942 68.1493 22.4056 66.841 13.8289C66.3943 13.9639 65.9476 14.0989 65.5008 14.2339C66.8422 23.1197 67.8175 31.9576 68.4142 40.7468C66.7543 42.4084 65.1071 44.0706 63.4522 45.7264C61.1133 36.1891 58.7693 26.6576 56.4304 17.1203C56.0039 17.2623 55.5774 17.4043 55.1458 17.5521C57.5455 27.3215 59.9376 37.0844 62.3423 46.848C59.1386 50.0682 55.9299 53.2943 52.7262 56.5146C51.8042 44.4779 50.1653 32.328 47.8397 20.1204C47.4031 20.274 46.969 20.4398 46.5274 20.5992C48.8809 33.0914 50.515 45.5184 51.4094 57.8432C48.468 60.7928 45.5343 63.7489 42.598 66.6928C39.5217 53.0681 36.4454 39.4434 33.3616 25.8123C32.9376 25.9966 32.5187 26.1752 32.0948 26.3595C35.2191 40.1855 38.3511 54.018 41.4754 67.844C40.3529 68.965 39.2379 70.0924 38.1153 71.2134C36.7506 72.5818 35.3859 73.9503 34.0338 75.3194C30.3407 60.3804 26.6501 45.4537 22.957 30.5148C22.5432 30.7177 22.1344 30.9148 21.7205 31.1177C25.4541 46.2214 29.1877 61.3251 32.9238 76.441C30.82 78.5512 28.7237 80.6678 26.6199 82.778C21.3362 67.4904 16.0501 52.1905 10.7664 36.9028C10.3753 37.1249 9.98419 37.347 9.60065 37.5755C14.8995 52.9062 20.1983 68.2368 25.4971 83.5674C25.5274 83.6533 25.5679 83.7276 25.6184 83.7904C22.6165 86.8095 19.6146 89.8285 16.6052 92.8412C11.3434 76.2463 6.07651 59.6572 0.814713 43.0622C0.431194 43.3209 0.0476804 43.5796 -0.328266 43.8446C4.96388 60.5254 10.2586 77.2184 15.5507 93.8992C13.3031 96.1592 11.0555 98.4192 8.80278 100.685C1.92586 84.7348 -4.94853 68.7969 -11.8255 52.8469C-12.1686 53.1497 -12.5091 53.4647 -12.8446 53.7739C-5.95762 69.7426 0.92941 85.7113 7.80886 101.674C5.41745 104.083 3.01846 106.487 0.627047 108.896C-7.6048 93.8811 -15.029 78.6338 -21.6228 63.2341C-21.9356 63.6228 -22.2408 64.018 -22.5409 64.4073C-15.9446 79.7288 -8.52044 94.8855 -0.303796 109.828C-4.18859 113.738 -8.07591 117.637 -11.9607 121.547C-19.3585 108.11 -26.148 94.5035 -32.3191 80.7763C-32.5611 81.3252 -32.7853 81.869 -33.0096 82.4128C-26.9422 95.8214 -20.2741 109.115 -13.028 122.243C-12.98 122.324 -12.9295 122.386 -12.8714 122.456C-14.5035 124.1 -16.1432 125.739 -17.7753 127.384C-24.1311 116.795 -30.4743 106.206 -36.8301 95.6172C-36.9458 96.2627 -37.0514 96.8967 -37.1418 97.5434C-30.9932 107.797 -24.8446 118.05 -18.6885 128.31C-20.3054 129.937 -21.9224 131.565 -23.547 133.186C-22.6705 134.036 -21.7637 134.852 -20.8266 135.634C-20.3776 135.179 -19.9336 134.73 -19.477 134.282C-9.37437 138.585 0.720742 142.881 10.8234 147.183C11.6943 147.135 12.5651 147.057 13.4233 146.948C2.77269 142.414 -7.8855 137.873 -18.5361 133.339C-17.0881 131.891 -15.6427 130.43 -14.1947 128.981C-1.56709 134.25 11.0606 139.519 23.6907 144.801C24.3091 144.62 24.9324 144.433 25.5533 144.234C12.6176 138.836 -0.318108 133.437 -13.2488 128.032C-11.0062 125.778 -8.76358 123.524 -6.521 121.27C7.75061 127.475 22.0273 133.675 36.2989 139.88C36.7682 139.644 37.2426 139.402 37.7221 139.154C23.2863 132.88 8.85062 126.606 -5.58511 120.332C-3.63263 118.366 -1.66752 116.399 0.284956 114.432C0.335408 114.375 0.393439 114.323 0.451459 114.272C15.8058 120.216 31.0168 126.853 46.0237 134.162C46.4122 133.897 46.7932 133.627 47.1818 133.362C32.1142 126.003 16.8351 119.308 1.4151 113.318C1.66231 113.065 1.92215 112.812 2.16935 112.559C2.24254 112.52 2.29299 112.462 2.32323 112.397C3.96039 110.747 5.60512 109.103 7.24228 107.452C23.8811 112.754 40.4295 118.763 56.842 125.47C57.17 125.155 57.4979 124.839 57.8259 124.523C41.4158 117.768 24.8699 111.741 8.23868 106.415Z" fill="#97C9CE"/>
</svg>
