<svg width="123" height="28" viewBox="0 0 123 28" fill="none" xmlns="http://www.w3.org/2000/svg">
<path d="M88.0019 54.2117C87.983 54.0708 87.9499 53.9305 87.9241 53.7969C87.9163 53.7759 87.9227 53.7545 87.9149 53.7335C87.8891 53.6 87.8634 53.4664 87.8308 53.3402C87.8303 53.3261 87.8225 53.3051 87.822 53.291C87.789 53.1506 87.7632 53.017 87.7233 52.884C87.7223 52.8557 87.7072 52.8279 87.7063 52.7996C87.6664 52.6666 87.6406 52.533 87.6007 52.3999C87.5929 52.379 87.592 52.3507 87.5842 52.3297C87.5443 52.1967 87.5044 52.0636 87.4645 51.9305L87.4572 51.9237C87.4173 51.7906 87.3701 51.6507 87.3234 51.525C87.3156 51.504 87.3078 51.483 87.3 51.4621C87.2533 51.3363 87.2066 51.2106 87.1598 51.0848C87.152 51.0638 87.1443 51.0429 87.1292 51.0151C87.0824 50.8893 87.0284 50.7567 86.9817 50.631C86.9744 50.6241 86.9812 50.6168 86.9739 50.61C86.9272 50.4842 86.8736 50.3658 86.8201 50.2473C86.8123 50.2264 86.805 50.2195 86.7972 50.1986C86.7436 50.0801 86.6901 49.9617 86.6292 49.8364C86.6214 49.8154 86.6136 49.7944 86.6059 49.7735C86.5523 49.655 86.4914 49.5297 86.4311 49.4186C86.4238 49.4118 86.4233 49.3976 86.4087 49.384C86.3551 49.2655 86.2874 49.1475 86.2271 49.0364C86.2197 49.0296 86.2266 49.0223 86.2193 49.0154C86.1589 48.9043 86.0912 48.7863 86.0308 48.6752C86.023 48.6542 86.0084 48.6405 86.0079 48.6264C85.9476 48.5153 85.8804 48.4114 85.82 48.3003C85.8127 48.2934 85.8049 48.2725 85.7976 48.2656C85.6627 48.0438 85.521 47.8293 85.3793 47.6148C85.3719 47.608 85.3642 47.587 85.3569 47.5802C85.2896 47.4763 85.2156 47.3798 85.1416 47.2833C85.1343 47.2764 85.1197 47.2628 85.1192 47.2487C84.9706 47.0414 84.8157 46.8557 84.6609 46.6699C84.6536 46.6631 84.6536 46.6631 84.6462 46.6563C84.5654 46.567 84.4987 46.4773 84.4178 46.3881C84.4105 46.3813 84.4032 46.3744 84.3959 46.3676C84.315 46.2784 84.2415 46.196 84.1606 46.1067C83.9994 45.9424 83.8381 45.7781 83.6774 45.6279C83.6701 45.6211 83.6628 45.6143 83.6628 45.6143C83.5824 45.5392 83.4952 45.4714 83.4221 45.4031L83.4148 45.3963C83.2472 45.2534 83.0874 45.1315 82.9135 45.01L82.9062 45.0032C82.8263 44.9422 82.7396 44.8886 82.6601 44.8418L82.6528 44.8349C82.4 44.6808 82.1549 44.5476 81.8966 44.4432L81.8893 44.4364C81.6384 44.3388 81.3952 44.2621 81.153 44.2138L81.1457 44.2069C81.0673 44.1884 80.9893 44.1839 80.904 44.1727C80.7407 44.157 80.5921 44.155 80.4298 44.1676C80.3523 44.1773 80.2816 44.1797 80.2046 44.2035C80.2046 44.2035 80.2046 44.2035 80.1978 44.2108C79.1854 44.4009 78.3443 45.2573 77.857 46.9506C75.6156 54.6963 81.3263 63.0561 83.6194 65.9922C82.1166 65.4914 80.6148 65.0188 79.0993 64.5609C78.0628 64.2495 77.0268 63.9521 75.9908 63.6548L74.5406 63.2442C70.6977 62.172 66.8422 61.1427 63.0188 60.0203C63.0525 59.9696 63.0861 59.919 63.1271 59.8751C63.2285 59.7372 63.3231 59.6067 63.4246 59.4688C63.4855 59.3889 63.5324 59.3095 63.5933 59.2296C63.6811 59.1063 63.7548 58.9835 63.8426 58.8603C63.8962 58.7736 63.9499 58.6868 64.0035 58.6001C64.0772 58.4773 64.1581 58.3614 64.225 58.2459C64.2786 58.1592 64.3323 58.0724 64.3786 57.9789C64.4455 57.8634 64.5191 57.7406 64.5786 57.6183C64.6323 57.5316 64.6718 57.4454 64.7182 57.3518C64.7777 57.2295 64.8445 57.114 64.904 56.9917C64.9435 56.9055 64.9899 56.8119 65.0367 56.7325C65.0962 56.6102 65.1558 56.4879 65.208 56.3588C65.2475 56.2726 65.287 56.1863 65.3197 56.1074C65.3719 55.9782 65.4241 55.8491 65.4832 55.7127C65.5159 55.6338 65.5486 55.5548 65.5813 55.4759C65.6398 55.3253 65.6915 55.1821 65.7501 55.0315C65.7691 54.9672 65.7955 54.9097 65.8218 54.8522C65.8926 54.6446 65.9634 54.437 66.0269 54.2226C66.0264 54.2085 66.04 54.1938 66.0395 54.1797C66.0967 53.9867 66.1538 53.7938 66.2109 53.6008C66.2299 53.5365 66.2417 53.4653 66.2607 53.401C66.2983 53.2582 66.3359 53.1154 66.3667 52.98C66.3852 52.9015 66.4038 52.823 66.4224 52.7446C66.4463 52.6164 66.4844 52.4878 66.5083 52.3596C66.5269 52.2812 66.5382 52.1959 66.5494 52.1106C66.5733 51.9824 66.5905 51.8616 66.6144 51.7334C66.6257 51.6481 66.6369 51.5628 66.6555 51.4844C66.6726 51.3635 66.6897 51.2427 66.7068 51.1218C66.7181 51.0365 66.7293 50.9512 66.7406 50.8659C66.7577 50.7451 66.7675 50.6174 66.7778 50.5038C66.7891 50.4186 66.7935 50.3406 66.8047 50.2553C66.8145 50.1276 66.8175 50.0072 66.8273 49.8795C66.8318 49.8016 66.8362 49.7236 66.8406 49.6456C66.8504 49.5179 66.8529 49.3834 66.8554 49.2489C66.853 49.1782 66.8579 49.1144 66.8624 49.0364C66.8644 48.8878 66.8591 48.7323 66.8611 48.5836C66.8597 48.5412 66.8651 48.4915 66.8563 48.4423C66.8496 48.2444 66.8429 48.0466 66.8362 47.8487C66.8352 47.8204 66.8274 47.7995 66.8338 47.778C66.828 47.6084 66.8081 47.4393 66.8023 47.2697C66.7931 47.2063 66.7839 47.1429 66.7888 47.0791C66.7772 46.9451 66.766 46.8252 66.7476 46.6984C66.7378 46.6209 66.7286 46.5576 66.7189 46.4801C66.7078 46.3602 66.6898 46.2476 66.6718 46.135C66.6621 46.0575 66.6524 45.98 66.6359 45.9098C66.6179 45.7972 66.5999 45.6846 66.5824 45.5862C66.5727 45.5087 66.5489 45.4317 66.5391 45.3542C66.5143 45.2489 66.5037 45.1431 66.4789 45.0378C66.4692 44.9603 66.4453 44.8833 66.4356 44.8058C66.4108 44.7005 66.386 44.5953 66.3685 44.4968C66.352 44.4266 66.335 44.3423 66.3184 44.2721C66.2936 44.1668 66.262 44.0688 66.2372 43.9636C66.2207 43.8934 66.1968 43.8163 66.1803 43.7462C66.1555 43.6409 66.1165 43.5361 66.0917 43.4308C66.0684 43.3679 66.0518 43.2977 66.0285 43.2348C65.9891 43.1159 65.9569 43.0038 65.9175 42.8848C65.9015 42.8288 65.8859 42.7869 65.8698 42.7308C65.8149 42.5699 65.7599 42.4091 65.6907 42.2487C65.6678 42.2 65.6518 42.1439 65.6289 42.0952C65.59 41.9904 65.5437 41.8787 65.5048 41.7739C65.4741 41.7042 65.4508 41.6413 65.4201 41.5716C65.3816 41.4809 65.3505 41.3971 65.3052 41.3137C65.2745 41.244 65.2439 41.1743 65.2132 41.1046C65.1752 41.0281 65.1372 40.9515 65.1061 40.8677C65.0754 40.798 65.0306 40.7288 65 40.659C64.962 40.5825 64.9313 40.5128 64.8865 40.4436C64.8558 40.3739 64.811 40.3046 64.7804 40.2349C64.7429 40.1725 64.7049 40.096 64.6674 40.0336C64.6226 39.9644 64.5919 39.8946 64.5471 39.8254C64.5096 39.763 64.4721 39.7006 64.4273 39.6314C64.3825 39.5622 64.345 39.4998 64.3002 39.4305C64.2627 39.3681 64.2184 39.313 64.1809 39.2506C64.1361 39.1814 64.0986 39.119 64.047 39.0571C64.0026 39.002 63.9725 38.9464 63.9354 38.8981C63.8906 38.8289 63.839 38.767 63.8015 38.7046C63.7645 38.6563 63.7348 38.6149 63.6978 38.5666C63.5127 38.3253 63.3208 38.0912 63.1225 37.8786C63.086 37.8445 63.0636 37.8099 63.0271 37.7757C62.9754 37.7138 62.917 37.6592 62.8585 37.6046C62.822 37.5705 62.7855 37.5363 62.7557 37.4949C62.6973 37.4403 62.6461 37.3925 62.5877 37.3379C62.5511 37.3037 62.5146 37.2696 62.4781 37.2355C62.4269 37.1877 62.3685 37.1331 62.3105 37.0926C62.2739 37.0584 62.2447 37.0311 62.2014 37.0043C62.1434 36.9638 62.0922 36.916 62.0343 36.8756C62.005 36.8483 61.9617 36.8214 61.9256 36.8014C61.8676 36.7609 61.8097 36.7205 61.7517 36.68C61.7156 36.66 61.6864 36.6327 61.6503 36.6127C61.5924 36.5722 61.5276 36.539 61.4696 36.4985C61.4335 36.4785 61.4048 36.4654 61.3687 36.4454C61.3039 36.4122 61.2459 36.3717 61.1811 36.3385C61.1524 36.3254 61.1309 36.319 61.1022 36.3058C61.0374 36.2727 60.9726 36.2395 60.901 36.2136L60.8937 36.2068C60.6422 36.0951 60.3922 36.0257 60.1432 35.9847C60.1291 35.9852 60.1076 35.9788 60.0862 35.9725C60.0151 35.9607 59.9512 35.9558 59.8874 35.9509C59.8591 35.9519 59.8377 35.9455 59.8021 35.9397C59.7382 35.9348 59.6817 35.9367 59.6179 35.9318C59.5896 35.9327 59.5613 35.9337 59.5258 35.9278C59.4692 35.9298 59.4127 35.9317 59.3493 35.9409C59.3211 35.9419 59.286 35.9501 59.2577 35.9511C59.2011 35.953 59.1451 35.9691 59.0817 35.9783C59.0466 35.9866 59.0184 35.9875 58.9906 36.0026C58.9345 36.0187 58.8785 36.0347 58.8224 36.0508C58.7873 36.0591 58.7595 36.0741 58.7386 36.0819C58.6825 36.098 58.6269 36.1282 58.5709 36.1442C58.5431 36.1593 58.5153 36.1744 58.4943 36.1822C58.4388 36.2124 58.3759 36.2358 58.3203 36.2659C58.2994 36.2737 58.2789 36.2957 58.2579 36.3034C57.6895 36.6482 57.1643 37.225 56.7408 38.0884C53.2365 45.1058 59.729 56.2761 61.8815 59.6557C59.2579 58.8604 56.6465 58.0082 54.0668 57.0487L53.9664 57.0096C53.8875 56.977 53.8159 56.9511 53.7301 56.9257C53.7301 56.9257 53.7301 56.9257 53.7228 56.9189L52.2459 56.3464C49.0255 55.0621 45.9115 53.576 42.9038 51.8882C43.0892 51.514 43.3341 51.0175 43.6034 50.4069C43.6366 50.3421 43.6556 50.2778 43.6888 50.213C43.8 49.9474 43.9318 49.6599 44.0489 49.3588C44.0816 49.2799 44.1075 49.2082 44.1402 49.1293C44.2051 48.9573 44.2768 48.778 44.3485 48.5987C44.4007 48.4695 44.453 48.3404 44.4979 48.2045C44.5369 48.1041 44.5759 48.0037 44.6145 47.8892C44.7443 47.5452 44.8663 47.1802 44.9879 46.8011C45.0523 46.6149 45.1094 46.422 45.1666 46.229C45.9125 43.8193 46.5158 40.9617 46.4812 38.0691C46.4764 37.9278 46.4789 37.7933 46.4741 37.6519C46.4726 37.6095 46.4712 37.5671 46.4698 37.5247C46.4591 37.419 46.4626 37.3127 46.4519 37.2069C46.4504 37.1645 46.4495 37.1363 46.448 37.0939C46.4364 36.9598 46.4316 36.8185 46.42 36.6845C46.419 36.6562 46.4185 36.6421 46.4176 36.6138C46.4137 36.5007 46.3958 36.3881 46.3851 36.2824C46.3837 36.24 46.3754 36.2049 46.374 36.1625C46.3633 36.0567 46.3526 35.9509 46.3351 35.8525C46.3342 35.8242 46.3332 35.7959 46.3254 35.775C46.307 35.6483 46.2885 35.5215 46.27 35.3948C46.2691 35.3665 46.2608 35.3315 46.253 35.3105C46.2355 35.212 46.218 35.1136 46.2005 35.0151C46.1923 34.98 46.184 34.9449 46.1757 34.9098C46.1578 34.7972 46.1398 34.6847 46.115 34.5794C46.1145 34.5652 46.1072 34.5584 46.114 34.5511C46.0887 34.4317 46.0634 34.3123 46.0382 34.1928C46.0299 34.1577 46.0221 34.1368 46.0212 34.1085C45.9968 34.0174 45.9725 33.9262 45.9555 33.8419C45.9545 33.8136 45.9394 33.7858 45.9385 33.7576C45.9064 33.6455 45.8743 33.5333 45.8421 33.4212C45.8421 33.4212 45.8348 33.4144 45.8417 33.4071C45.8169 33.3018 45.7779 33.197 45.7463 33.099C45.7385 33.0781 45.7302 33.043 45.7224 33.022C45.6913 32.9382 45.667 32.847 45.6358 32.7632C45.628 32.7422 45.6276 32.7281 45.6198 32.7071C45.5808 32.6023 45.5492 32.5043 45.5034 32.4069C45.503 32.3927 45.4957 32.3859 45.4883 32.3791C45.4572 32.2952 45.4187 32.2045 45.3808 32.128C45.373 32.1071 45.3652 32.0861 45.3574 32.0651C45.3189 31.9745 45.2805 31.8838 45.2352 31.8004L45.2279 31.7936C45.1894 31.7029 45.1369 31.6127 45.0916 31.5294C45.0843 31.5226 45.0838 31.5084 45.0692 31.4948C45.0312 31.4182 44.9864 31.349 44.9484 31.2725C44.9411 31.2656 44.9333 31.2447 44.926 31.2378C44.8286 31.0784 44.7385 30.9258 44.6348 30.7879C44.6275 30.781 44.6202 30.7742 44.6197 30.7601C44.5681 30.6981 44.5306 30.6357 44.4789 30.5738C44.4716 30.567 44.4716 30.567 44.4643 30.5602C44.3538 30.4295 44.2437 30.313 44.1341 30.2106C44.1268 30.2037 44.1194 30.1969 44.1121 30.1901C43.9952 30.0808 43.8861 29.9926 43.7628 29.9048C43.7049 29.8643 43.6401 29.8311 43.5894 29.7975C43.5821 29.7907 43.5821 29.7907 43.5748 29.7838C43.4593 29.717 43.3302 29.6648 43.2015 29.6267L43.1942 29.6199C43.1299 29.6008 43.0729 29.5886 43.0086 29.5696C43.0086 29.5696 43.0012 29.5628 42.9944 29.5701C42.8663 29.5461 42.7386 29.5363 42.6041 29.5338L42.5899 29.5343C41.5231 29.5776 40.3621 30.6005 39.2527 32.9306C36.6322 38.4745 40.2589 47.7613 41.8212 51.2599C39.1287 49.6887 36.5304 47.9728 34.0395 46.0835L32.5935 44.9653C32.121 44.5922 31.6552 44.2118 31.1895 43.8314C29.3329 42.2884 27.5582 40.6578 25.8587 38.9468C25.926 38.8454 25.9928 38.7299 26.0733 38.5998C26.1206 38.5346 26.1606 38.4625 26.2006 38.3903C26.2947 38.2456 26.3884 38.0868 26.4957 37.9134C26.8176 37.393 27.1922 36.7577 27.6405 35.9995C27.7805 35.7472 27.9415 35.487 28.0946 35.2058C28.1746 35.0616 28.2546 34.9174 28.3419 34.78C29.1697 33.3227 30.1347 31.5282 31.2162 29.4184C31.2694 29.3176 31.3226 29.2167 31.3616 29.1163C31.3816 29.0803 31.3948 29.0515 31.4148 29.0155C31.448 28.9507 31.4738 28.879 31.5138 28.8069C31.5338 28.7709 31.5465 28.728 31.5665 28.6919C31.5997 28.6271 31.6187 28.5628 31.6519 28.498C31.6646 28.4551 31.6914 28.4118 31.7041 28.3689C31.7305 28.3114 31.7563 28.2398 31.7827 28.1823C31.7954 28.1394 31.8222 28.096 31.8349 28.0531C31.8612 27.9956 31.8803 27.9313 31.9061 27.8597C31.9188 27.8168 31.9384 27.7666 31.9584 27.7306C31.9774 27.6662 32.0037 27.6087 32.0296 27.5371C32.0423 27.4942 32.055 27.4513 32.075 27.4153C32.1009 27.3437 32.1199 27.2793 32.1389 27.215C32.1516 27.1721 32.1648 27.1434 32.1775 27.1005C32.2029 27.0147 32.2283 26.929 32.2537 26.8432C32.26 26.8218 32.2664 26.8003 32.2727 26.7789C32.3044 26.6717 32.3362 26.5645 32.3679 26.4573C32.3811 26.4285 32.3869 26.3929 32.386 26.3647C32.4045 26.2862 32.4231 26.2078 32.449 26.1361C32.4617 26.0932 32.4675 26.0577 32.4802 26.0148C32.4993 25.9505 32.511 25.8793 32.53 25.815C32.5427 25.7721 32.5481 25.7224 32.5608 25.6795C32.5799 25.6152 32.5848 25.5513 32.597 25.4943C32.6097 25.4514 32.615 25.4017 32.6204 25.352C32.6326 25.295 32.6444 25.2239 32.6566 25.1668C32.662 25.1171 32.6747 25.0743 32.6801 25.0245C32.6923 24.9675 32.6972 24.9037 32.7162 24.8394C32.7216 24.7897 32.7343 24.7468 32.7397 24.6971C32.7446 24.6332 32.7568 24.5762 32.7685 24.5051C32.7739 24.4553 32.7798 24.4198 32.7852 24.3701C32.7969 24.2989 32.8018 24.2351 32.8135 24.1639C32.8194 24.1283 32.818 24.0859 32.8238 24.0504C32.8346 23.9509 32.8449 23.8374 32.8557 23.738C32.8615 23.7024 32.8606 23.6741 32.8664 23.6386C32.8782 23.5674 32.8758 23.4967 32.8875 23.4256C32.8929 23.3759 32.8914 23.3335 32.8968 23.2838C32.9017 23.2199 32.8998 23.1634 32.912 23.1064C32.9174 23.0567 32.916 23.0143 32.9141 22.9577C32.9121 22.9012 32.9175 22.8515 32.9156 22.7949C32.921 22.7452 32.9122 22.696 32.9176 22.6463C32.9157 22.5898 32.9211 22.5401 32.9192 22.4835C32.9246 22.4338 32.9158 22.3846 32.9212 22.3349C32.9193 22.2783 32.9178 22.2359 32.9159 22.1794C32.914 22.1229 32.9125 22.0805 32.9106 22.0239C32.916 21.9742 32.9073 21.925 32.9053 21.8684C32.9034 21.8119 32.902 21.7695 32.9001 21.713C32.8986 21.6706 32.8967 21.614 32.8953 21.5716C32.8933 21.5151 32.8846 21.4659 32.89 21.4162C32.8885 21.3738 32.8798 21.3245 32.8783 21.2821C32.8677 21.1764 32.8638 21.0633 32.8459 20.9507C32.8376 20.9156 32.8435 20.88 32.8352 20.8449C32.8333 20.7884 32.8172 20.7323 32.8153 20.6758C32.8138 20.6334 32.8056 20.5983 32.8041 20.5559C32.7954 20.5067 32.7862 20.4433 32.7774 20.3941C32.7692 20.359 32.7677 20.3166 32.7594 20.2815C32.7507 20.2323 32.7415 20.1689 32.7327 20.1197C32.7245 20.0846 32.723 20.0422 32.7147 20.0071C32.706 19.9579 32.6899 19.9018 32.688 19.8453C32.6797 19.8102 32.6715 19.7751 32.6632 19.74C32.6472 19.6839 32.6384 19.6347 32.6224 19.5786C32.6141 19.5435 32.6058 19.5085 32.5976 19.4734C32.5815 19.4173 32.5727 19.3681 32.5567 19.312C32.5557 19.2838 32.5406 19.256 32.5397 19.2277C32.5236 19.1716 32.5076 19.1156 32.4915 19.0595C32.491 19.0454 32.4832 19.0244 32.4759 19.0176C32.4122 18.8075 32.3343 18.5979 32.2638 18.3951C32.2633 18.381 32.256 18.3742 32.2555 18.36C32.2321 18.2972 32.2092 18.2484 32.1791 18.1928C32.1713 18.1719 32.1635 18.1509 32.1557 18.1299C32.1328 18.0812 32.1026 18.0256 32.0866 17.9696C32.0788 17.9486 32.071 17.9276 32.0559 17.8999C32.033 17.8511 32.0101 17.8024 31.9799 17.7468C31.9722 17.7258 31.9644 17.7049 31.9425 17.6844C31.9196 17.6356 31.8967 17.5869 31.8597 17.5386C31.8519 17.5177 31.8373 17.504 31.8295 17.483C31.8066 17.4343 31.7696 17.386 31.7467 17.3373C31.7321 17.3236 31.7316 17.3095 31.717 17.2958C31.6868 17.2403 31.6498 17.192 31.6201 17.1505C31.6128 17.1437 31.6128 17.1437 31.6055 17.1369C31.4491 16.9087 31.2865 16.702 31.1033 16.5172C31.096 16.5104 31.0887 16.5035 31.0887 16.5035C31.0448 16.4626 31.0083 16.4284 30.9645 16.3875C30.9572 16.3807 30.9425 16.367 30.9352 16.3602C30.8987 16.326 30.8549 16.2851 30.8183 16.2509C30.8037 16.2373 30.7964 16.2305 30.7818 16.2168C30.7453 16.1827 30.7019 16.1559 30.658 16.1149C30.6434 16.1012 30.6361 16.0944 30.6147 16.0881C30.5713 16.0612 30.5348 16.0271 30.4841 15.9934C30.4768 15.9866 30.4622 15.973 30.4481 15.9734C30.4047 15.9466 30.354 15.913 30.3107 15.8861C30.3034 15.8793 30.3034 15.8793 30.296 15.8725C30.0724 15.7457 29.8424 15.6403 29.5993 15.5636C29.5423 15.5514 29.4921 15.5319 29.435 15.5197C29.4209 15.5202 29.4136 15.5133 29.3995 15.5138C29.3425 15.5016 29.2927 15.4962 29.2426 15.4767C29.2284 15.4772 29.207 15.4708 29.1928 15.4713C29.1431 15.4659 29.0861 15.4537 29.0364 15.4483C29.0223 15.4488 29.0008 15.4425 28.9867 15.4429C28.937 15.4376 28.8731 15.4327 28.8234 15.4273C28.8093 15.4277 28.7879 15.4214 28.7737 15.4219C28.7172 15.4238 28.6675 15.4184 28.6036 15.4135C28.5895 15.414 28.5754 15.4145 28.5612 15.4149C27.953 15.4215 27.2862 15.5786 26.5613 15.9003C19.7873 18.9323 23.4589 33.0781 24.9395 37.9238C22.2331 35.1079 19.732 32.0869 17.4795 28.8876C17.479 28.8735 17.479 28.8735 17.4785 28.8593L16.6384 27.6639C15.3498 25.762 14.144 23.8007 13.0285 21.7868C13.0348 21.7654 13.0412 21.7439 13.0475 21.7225C13.0919 21.5724 13.1369 21.4365 13.1744 21.2937C13.1808 21.2722 13.1803 21.2581 13.1867 21.2367C13.2243 21.0939 13.2619 20.9511 13.2922 20.8015C13.2917 20.7874 13.298 20.7659 13.3048 20.7586C13.3351 20.609 13.3654 20.4594 13.3957 20.3098C13.3948 20.2815 13.4079 20.2528 13.407 20.2245C13.4304 20.0822 13.4607 19.9326 13.4769 19.7835C13.4759 19.7552 13.4823 19.7338 13.4813 19.7055C13.5043 19.5491 13.5205 19.3999 13.5361 19.2367L13.5357 19.2225C13.5518 19.0734 13.5607 18.9175 13.5695 18.7615C13.5686 18.7332 13.5749 18.7118 13.5739 18.6835C13.5828 18.5276 13.5848 18.3789 13.5868 18.2303C13.5859 18.202 13.5849 18.1737 13.5908 18.1382C13.5928 17.9895 13.6017 17.8336 13.5964 17.6781C13.6027 17.6566 13.5949 17.6357 13.594 17.6074C13.596 17.4588 13.5907 17.3033 13.5786 17.1551C13.5781 17.141 13.5776 17.1269 13.5772 17.1127C13.5719 16.9573 13.5593 16.795 13.5472 16.6468C13.5462 16.6185 13.5453 16.5903 13.5443 16.562C13.5322 16.4138 13.5128 16.2588 13.5007 16.1107C13.4997 16.0824 13.4987 16.0541 13.4978 16.0259C13.4784 15.8709 13.459 15.7159 13.4395 15.5609C13.4391 15.5467 13.4317 15.5399 13.4313 15.5258C13.4118 15.3708 13.3856 15.2231 13.3662 15.0681C13.3584 15.0471 13.3574 15.0189 13.357 15.0047C13.3307 14.8571 13.304 14.6952 13.2777 14.5475C13.2768 14.5193 13.2685 14.4842 13.2607 14.4632C13.2272 14.3087 13.2009 14.161 13.1674 14.0065C13.1596 13.9856 13.1586 13.9573 13.1509 13.9363C13.1173 13.7818 13.0769 13.6346 13.0434 13.4801C13.0361 13.4733 13.0429 13.466 13.0356 13.4591C12.9947 13.2978 12.9543 13.1506 12.9135 12.9892C12.9057 12.9683 12.8974 12.9332 12.8896 12.9122C12.8493 12.765 12.8016 12.611 12.7612 12.4638C12.7461 12.436 12.7452 12.4077 12.7301 12.3799C12.6824 12.2259 12.6347 12.0719 12.5802 11.9251C12.5797 11.911 12.5651 11.8974 12.5646 11.8832C12.5101 11.7365 12.4697 11.5893 12.4152 11.4426C12.4074 11.4216 12.3996 11.4006 12.3991 11.3865C12.3446 11.2398 12.2901 11.0931 12.2356 10.9463C12.2205 10.9185 12.2196 10.8903 12.2045 10.8625C12.1499 10.7158 12.0886 10.5763 12.0341 10.4296C12.0263 10.4087 12.0112 10.3809 12.0034 10.3599C11.9416 10.2064 11.8803 10.0669 11.8185 9.91339C11.7498 9.76714 11.688 9.61359 11.6193 9.46735C11.6116 9.44639 11.5965 9.4186 11.5887 9.39764C11.5273 9.25822 11.4519 9.11928 11.3905 8.97986C11.3754 8.95207 11.3676 8.93111 11.3525 8.90332C11.2771 8.76439 11.2157 8.62497 11.1403 8.48603C11.1325 8.46507 11.1252 8.45824 11.1174 8.43728C11.0492 8.30517 10.9737 8.16623 10.9056 8.03412C10.8983 8.02729 10.8905 8.00633 10.8832 7.9995C10.8077 7.86057 10.7395 7.72846 10.6572 7.59682C10.6421 7.56904 10.6344 7.54807 10.6193 7.52029C10.5443 7.39548 10.4688 7.25655 10.3938 7.13174C10.386 7.11078 10.3641 7.0903 10.3563 7.06934C10.274 6.93771 10.1917 6.80608 10.1094 6.67444L10.1021 6.66762C10.0198 6.53599 9.9375 6.40435 9.85568 6.28686C9.84789 6.2659 9.83328 6.25224 9.82549 6.23128C9.74367 6.11378 9.66869 5.98898 9.57956 5.86465C9.56446 5.83687 9.54985 5.82321 9.53475 5.79543C9.45293 5.67793 9.36381 5.5536 9.28199 5.43611C9.26737 5.42245 9.2669 5.40832 9.25228 5.39466C9.17046 5.27717 9.08182 5.16698 8.99999 5.04948C8.99269 5.04265 8.98538 5.03583 8.9849 5.02169C8.89626 4.9115 8.81444 4.79401 8.72579 4.68381C8.71118 4.67016 8.69608 4.64237 8.68147 4.62872C8.59282 4.51853 8.51148 4.41517 8.42284 4.30498C8.40822 4.29132 8.40043 4.27036 8.37851 4.24988C8.28987 4.13969 8.1944 4.03681 8.10575 3.92662L8.09844 3.91979C8.00297 3.81691 7.92163 3.71354 7.82616 3.61066C7.81154 3.59701 7.80423 3.59018 7.78962 3.57653C7.70145 3.48047 7.61329 3.38441 7.52512 3.28836C7.51051 3.2747 7.4959 3.26105 7.47397 3.24057C7.38581 3.14451 7.29082 3.05576 7.20996 2.96653C7.19534 2.95288 7.18804 2.94605 7.17342 2.9324C7.07843 2.84365 6.99026 2.7476 6.89575 2.67298L6.88844 2.66615C6.79345 2.5774 6.70576 2.49548 6.61125 2.42087C6.59664 2.40721 6.58202 2.39356 6.57472 2.38673C6.48703 2.30481 6.39252 2.2302 6.30531 2.16241C6.2907 2.14875 6.28339 2.14193 6.26878 2.12827C6.17427 2.05366 6.07975 1.97904 5.99255 1.91125C5.98524 1.90443 5.98524 1.90443 5.97793 1.8976C5.89073 1.82981 5.79622 1.7552 5.70218 1.69472C5.69488 1.68789 5.68757 1.68106 5.68026 1.67424C5.59306 1.60645 5.49903 1.54597 5.4123 1.49231C5.39769 1.47866 5.38355 1.47914 5.36894 1.46548C5.28221 1.41183 5.18818 1.35135 5.10146 1.2977C5.09415 1.29087 5.08001 1.29135 5.0654 1.2777C4.87782 1.17087 4.70485 1.07769 4.52505 0.991826C4.51774 0.984999 4.50361 0.985478 4.4963 0.978651C4.41006 0.93913 4.32381 0.899612 4.24488 0.866918C4.23757 0.860091 4.22344 0.86057 4.20882 0.846916C4.12258 0.807395 4.03681 0.782009 3.95105 0.756624C3.95105 0.756624 3.94374 0.749799 3.93691 0.757105C3.85115 0.73172 3.76539 0.706331 3.68693 0.687772L3.67279 0.688251C3.59434 0.669693 3.51588 0.651134 3.4306 0.639881C3.41646 0.64036 3.40915 0.633536 3.39502 0.634015C3.22733 0.696314 3.15618 0.684582 3.07821 0.680156C3.06407 0.680635 3.06407 0.680638 3.04994 0.681117C2.89398 0.672265 2.7312 0.670721 2.58304 0.682832C2.5689 0.683311 2.5689 0.683313 2.55477 0.683792C2.47727 0.693502 2.41391 0.702727 2.34372 0.719263C2.32959 0.719742 2.32276 0.727054 2.30862 0.727533C2.23843 0.744068 2.16825 0.760601 2.09854 0.79127C2.09854 0.79127 2.09171 0.798577 2.07758 0.799058C2.01469 0.82242 1.94498 0.853089 1.87528 0.883758L1.86845 0.891065C1.79874 0.921734 1.73634 0.959232 1.67393 0.996728C1.66711 1.00403 1.65297 1.00451 1.64615 1.01182C1.58375 1.04932 1.52865 1.09364 1.46673 1.14527C1.4599 1.15258 1.45307 1.15988 1.44625 1.16719C1.39798 1.20421 1.33606 1.25584 1.28144 1.3143C0.645584 1.96559 0.224891 3.11899 0.101183 4.89198C-0.566346 15.2302 8.21335 20.6274 11.4453 22.251C12.5842 24.3277 13.8201 26.3446 15.1389 28.3021L15.8831 29.3805C18.1959 32.6909 20.7648 35.8299 23.5457 38.7565C19.037 36.8296 7.59759 32.6973 2.94205 37.9001C1.70832 39.2792 1.2905 40.5174 1.46104 41.5799C1.46835 41.5868 1.46152 41.5941 1.46882 41.6009C1.52179 41.9104 1.62399 42.2112 1.77493 42.489L1.78224 42.4959C1.93319 42.7737 2.13336 43.0429 2.36815 43.2896L2.37546 43.2964C2.61024 43.5432 2.89426 43.7811 3.20559 43.9899C3.21289 43.9967 3.21289 43.9967 3.2202 44.0035C3.27818 44.044 3.34346 44.0913 3.40827 44.1245C3.66844 44.2855 3.94958 44.4386 4.24484 44.5913C4.25215 44.5982 4.27359 44.6045 4.2809 44.6113C4.3457 44.6445 4.41733 44.6704 4.48944 44.7104C4.49675 44.7172 4.51089 44.7167 4.51819 44.7236C4.74087 44.8221 4.97038 44.9134 5.21402 45.0041C5.22132 45.011 5.23546 45.0105 5.24277 45.0173C5.3144 45.0432 5.38603 45.069 5.45766 45.0949C5.4791 45.1013 5.50784 45.1144 5.52929 45.1208C5.60092 45.1466 5.66524 45.1657 5.7437 45.1842C5.76514 45.1906 5.78658 45.1969 5.81533 45.2101C6.05118 45.2799 6.28703 45.3497 6.52241 45.4054C6.55115 45.4186 6.57942 45.4176 6.60086 45.424C6.66519 45.443 6.73633 45.4547 6.80749 45.4665C6.84306 45.4723 6.88594 45.485 6.92152 45.4909C6.99267 45.5026 7.05699 45.5217 7.12814 45.5334C7.17102 45.5461 7.2066 45.552 7.25631 45.5574C7.32746 45.5691 7.39178 45.5881 7.45563 45.593C7.4912 45.5989 7.52678 45.6048 7.56235 45.6106C7.69052 45.6346 7.81868 45.6585 7.94637 45.6683C7.99608 45.6737 8.04579 45.6791 8.08867 45.6918C8.15251 45.6967 8.20953 45.7089 8.27337 45.7138C8.32308 45.7192 8.3801 45.7314 8.43663 45.7295C8.50047 45.7344 8.55749 45.7466 8.62134 45.7515C8.67835 45.7637 8.73489 45.7618 8.79873 45.7667C8.86257 45.7716 8.91228 45.777 8.97612 45.7819C9.06141 45.7932 9.13939 45.7976 9.2315 45.8015C9.30265 45.8133 9.37331 45.8109 9.44447 45.8226C9.52244 45.827 9.58629 45.8319 9.66426 45.8364C9.71397 45.8418 9.77051 45.8398 9.82022 45.8452C9.88406 45.8501 9.95473 45.8477 10.0186 45.8526C10.0751 45.8507 10.1248 45.8561 10.1814 45.8542C10.252 45.8518 10.33 45.8562 10.3938 45.8611C10.4436 45.8665 10.486 45.865 10.5425 45.8631C10.6629 45.8661 10.7759 45.8623 10.8963 45.8653C10.9246 45.8643 10.9529 45.8633 10.9884 45.8692C11.0805 45.8731 11.1722 45.863 11.2643 45.8669C11.3067 45.8655 11.3632 45.8635 11.4056 45.8621C11.4763 45.8597 11.5611 45.8568 11.6318 45.8544C11.6742 45.853 11.7307 45.8511 11.7731 45.8496C11.8579 45.8467 11.9354 45.837 12.0202 45.8341C12.0626 45.8327 12.105 45.8313 12.1474 45.8298C12.2673 45.8187 12.3872 45.8075 12.5071 45.7964C12.5212 45.7959 12.5422 45.7881 12.5637 45.7944C12.6694 45.7838 12.7752 45.7731 12.8809 45.7624C12.9233 45.761 12.9584 45.7527 13.0077 45.744C13.0852 45.7343 13.1768 45.7241 13.2543 45.7144C13.2967 45.7129 13.3459 45.7042 13.381 45.6959C13.4653 45.6789 13.5501 45.676 13.6345 45.659C13.6696 45.6507 13.712 45.6493 13.7471 45.641C13.8738 45.6226 13.9864 45.6046 14.1058 45.5793C14.1199 45.5788 14.1268 45.5715 14.1341 45.5784C14.2467 45.5604 14.3519 45.5356 14.4645 45.5176C14.4996 45.5093 14.5347 45.5011 14.584 45.4923C14.6683 45.4753 14.7526 45.4583 14.8296 45.4344C14.8715 45.4189 14.9139 45.4174 14.9559 45.4019C15.0402 45.3848 15.1172 45.361 15.2015 45.344C15.2366 45.3357 15.2717 45.3274 15.3068 45.3192C15.4189 45.2871 15.5383 45.2618 15.6573 45.2224C15.6573 45.2224 15.6641 45.2151 15.6714 45.2219C15.7835 45.1898 15.8956 45.1577 16.0077 45.1256C16.0428 45.1173 16.0779 45.109 16.1126 45.0866C16.1896 45.0628 16.2734 45.0316 16.3504 45.0078C16.3923 44.9922 16.4274 44.9839 16.4694 44.9684C16.5464 44.9445 16.6302 44.9134 16.6999 44.8827C16.735 44.8744 16.7696 44.852 16.8047 44.8438C16.9164 44.7975 17.0212 44.7586 17.1328 44.7123C18.7795 44.0338 20.1025 43.4087 21.1589 42.8492C21.4646 42.6832 21.7425 42.5322 22.0062 42.3817C22.27 42.2313 22.5127 42.0886 22.7341 41.9396C23.0666 41.7302 23.364 41.529 23.6194 41.3435C23.7023 41.2841 23.7852 41.2246 23.8681 41.1652C24.1855 40.928 24.4332 40.7215 24.6389 40.5306C24.694 40.4863 24.735 40.4424 24.7828 40.3913C24.8511 40.3182 24.9266 40.2519 24.9812 40.1935C26.7096 41.9177 28.5203 43.5684 30.3988 45.1318L31.8759 46.3339C34.6314 48.5114 37.5293 50.5072 40.5476 52.3008C35.5153 51.8279 21.0222 51.1105 20.2563 58.3461C20.2245 58.6585 20.2058 58.9422 20.2013 59.2253C20.2037 59.296 20.1988 59.3598 20.2012 59.4305L20.2017 59.4446C20.2041 59.5153 20.206 59.5719 20.2152 59.6352L20.2157 59.6494C20.2176 59.7059 20.2269 59.7693 20.2288 59.8258L20.2293 59.8399C20.2326 59.9389 20.2419 60.0022 20.2438 60.0588L20.2443 60.0729C20.2462 60.1294 20.2622 60.1855 20.2642 60.242C20.2715 60.2488 20.2646 60.2562 20.2719 60.263C20.2807 60.3122 20.2899 60.3756 20.2987 60.4248C20.306 60.4316 20.2991 60.4389 20.3065 60.4458C20.3152 60.495 20.3313 60.551 20.34 60.6003C20.3473 60.6071 20.3405 60.6144 20.3478 60.6212C20.3565 60.6705 20.3653 60.7197 20.3882 60.7684C20.3955 60.7753 20.3886 60.7826 20.396 60.7894C20.4047 60.8386 20.4203 60.8806 20.4432 60.9293C20.4505 60.9361 20.4436 60.9434 20.4509 60.9503C20.4665 60.9922 20.4753 61.0414 20.4982 61.0902C20.5055 61.097 20.4986 61.1043 20.5059 61.1111C20.5215 61.153 20.5371 61.195 20.56 61.2437C20.5673 61.2505 20.5605 61.2578 20.5678 61.2647C20.5833 61.3066 20.5989 61.3485 20.6286 61.39C20.6359 61.3968 20.6291 61.4041 20.6364 61.4109C20.652 61.4528 20.6744 61.4875 20.6973 61.5362C20.7046 61.543 20.7046 61.543 20.7051 61.5572C20.7275 61.5918 20.743 61.6337 20.7727 61.6751C20.78 61.682 20.78 61.682 20.7805 61.6961C20.8029 61.7307 20.8253 61.7653 20.855 61.8068C20.8623 61.8136 20.8623 61.8136 20.8696 61.8204C20.8921 61.855 20.9145 61.8897 20.9442 61.9311C20.9515 61.9379 20.9515 61.9379 20.9588 61.9448C20.9812 61.9794 21.0177 62.0135 21.0401 62.0481C21.0474 62.0549 21.0474 62.0549 21.0547 62.0618C21.0771 62.0964 21.1137 62.1305 21.1429 62.1578L21.1502 62.1647C21.1794 62.192 21.216 62.2261 21.2384 62.2607L21.2457 62.2675C21.2749 62.2948 21.3114 62.329 21.3407 62.3563L21.348 62.3631C21.3772 62.3904 21.4137 62.4246 21.4498 62.4446C21.4498 62.4446 21.4498 62.4446 21.4571 62.4514C21.4936 62.4855 21.5297 62.5055 21.5662 62.5396C21.6096 62.5665 21.6388 62.5938 21.6822 62.6206C22.6079 63.2118 23.9067 63.3304 25.4201 63.1021C25.4834 63.0928 25.5468 63.0836 25.6102 63.0744C25.6102 63.0744 25.6102 63.0744 25.617 63.0671C25.6803 63.0578 25.7437 63.0486 25.7998 63.0326L25.8139 63.0321C25.8773 63.0228 25.9333 63.0068 25.9967 62.9976C26.0035 62.9903 26.0108 62.9971 26.0176 62.9898C26.081 62.9806 26.1371 62.9645 26.2072 62.948C26.2141 62.9407 26.2214 62.9475 26.2282 62.9402C26.2916 62.9309 26.3476 62.9149 26.4105 62.8915C26.4246 62.891 26.4315 62.8837 26.4388 62.8906C26.4948 62.8745 26.5582 62.8653 26.6211 62.8419C26.6352 62.8414 26.642 62.8341 26.6562 62.8337C26.7122 62.8176 26.7756 62.8084 26.8385 62.785C26.8526 62.7845 26.8594 62.7772 26.8736 62.7767C26.9296 62.7607 26.9857 62.7446 27.0559 62.7281C27.07 62.7276 27.0768 62.7203 27.091 62.7198C27.147 62.7038 27.2099 62.6804 27.266 62.6644C27.2801 62.6639 27.2869 62.6566 27.3079 62.6488C27.3639 62.6327 27.4268 62.6094 27.4829 62.5933C27.497 62.5928 27.5107 62.5782 27.5248 62.5777C27.5809 62.5617 27.6437 62.5383 27.6998 62.5223C27.7139 62.5218 27.7349 62.514 27.7417 62.5067C27.7978 62.4906 27.8607 62.4673 27.9167 62.4512C27.9308 62.4507 27.9518 62.4429 27.9586 62.4356C28.0147 62.4196 28.0776 62.3962 28.1336 62.3802C28.1546 62.3724 28.1687 62.3719 28.1824 62.3573C28.2384 62.3412 28.3013 62.3179 28.3574 62.3018C28.3783 62.294 28.3925 62.2935 28.4061 62.2789C28.4622 62.2629 28.5251 62.2395 28.5806 62.2093C28.6016 62.2015 28.6157 62.2011 28.6294 62.1864C28.6923 62.1631 28.741 62.1402 28.8039 62.1168C28.8248 62.109 28.839 62.1086 28.8599 62.1008C28.9228 62.0774 28.9716 62.0545 29.0345 62.0312C29.0554 62.0234 29.0764 62.0156 29.0832 62.0083C29.1461 61.9849 29.1948 61.962 29.2577 61.9387C29.2787 61.9309 29.2996 61.9231 29.3065 61.9158C29.3693 61.8924 29.4181 61.8696 29.481 61.8462C29.5019 61.8384 29.5229 61.8306 29.5366 61.816C29.5994 61.7926 29.655 61.7625 29.7111 61.7464C29.732 61.7386 29.753 61.7308 29.774 61.723C29.8368 61.6997 29.8924 61.6695 29.9553 61.6461C29.9763 61.6383 29.9972 61.6306 30.004 61.6232C30.0669 61.5999 30.1225 61.5697 30.1854 61.5463C30.2063 61.5385 30.2273 61.5308 30.241 61.5161C30.2965 61.486 30.3594 61.4626 30.415 61.4324C30.436 61.4246 30.4496 61.41 30.4706 61.4022C30.5261 61.372 30.589 61.3487 30.6446 61.3185C30.6656 61.3107 30.6865 61.3029 30.7002 61.2883C30.7557 61.2581 30.8186 61.2347 30.8742 61.2045C30.8952 61.1968 30.9088 61.1821 30.923 61.1817C30.9785 61.1515 31.0482 61.1208 31.1038 61.0906C31.1248 61.0828 31.1384 61.0682 31.1526 61.0677C31.2081 61.0375 31.2778 61.0069 31.3334 60.9767C31.3544 60.9689 31.3612 60.9616 31.3822 60.9538C31.4446 60.9163 31.5075 60.8929 31.5699 60.8554C31.584 60.855 31.5976 60.8404 31.6118 60.8399C31.6742 60.8024 31.7439 60.7717 31.8063 60.7342C31.8131 60.7269 31.8273 60.7264 31.8409 60.7118C31.9106 60.6811 31.973 60.6436 32.0423 60.5988C32.0491 60.5915 32.0632 60.5911 32.0632 60.5911C32.1397 60.5531 32.2022 60.5156 32.2787 60.4776C32.8276 60.183 33.3688 59.8675 33.9094 59.5378C33.9718 59.5003 34.041 59.4555 34.1034 59.418C34.1171 59.4034 34.1312 59.4029 34.1449 59.3883C34.2005 59.3581 34.2556 59.3138 34.3111 59.2836C34.3321 59.2758 34.3526 59.2539 34.3735 59.2461C34.4291 59.2159 34.4774 59.1789 34.533 59.1487C34.5607 59.1336 34.5812 59.1117 34.6022 59.1039C34.6504 59.0669 34.706 59.0367 34.7475 59.007C34.7753 58.9919 34.803 58.9768 34.8235 58.9549C34.8718 58.9179 34.9205 58.895 34.9688 58.858C34.9966 58.8429 35.0312 58.8205 35.059 58.8054C35.1004 58.7757 35.156 58.7455 35.1975 58.7158C35.2321 58.6934 35.2599 58.6783 35.2945 58.6559C35.3359 58.6262 35.3774 58.5965 35.4329 58.5663C35.4675 58.5439 35.4953 58.5288 35.5299 58.5064C35.5714 58.4767 35.6128 58.4469 35.6543 58.4172C35.6889 58.3948 35.7235 58.3724 35.7513 58.3573C35.7927 58.3276 35.8342 58.2979 35.8756 58.2682C35.9102 58.2458 35.9448 58.2234 35.9795 58.201C36.0209 58.1713 36.0623 58.1416 36.1038 58.1119C36.1384 58.0895 36.173 58.0671 36.2076 58.0447C36.2491 58.015 36.2905 57.9853 36.3319 57.9555C36.3666 57.9331 36.4012 57.9107 36.4285 57.8815C36.4699 57.8518 36.5114 57.8221 36.5528 57.7924C36.5874 57.77 36.622 57.7476 36.6493 57.7184C36.6908 57.6886 36.7254 57.6662 36.7668 57.6365C36.8015 57.6141 36.8429 57.5844 36.8702 57.5552C36.9116 57.5255 36.9463 57.5031 36.9804 57.4666C37.015 57.4442 37.0565 57.4144 37.0838 57.3852C37.1252 57.3555 37.1598 57.3331 37.1939 57.2966C37.2286 57.2742 37.27 57.2445 37.2973 57.2152C37.3388 57.1855 37.3734 57.1631 37.4075 57.1266C37.4421 57.1042 37.4762 57.0676 37.5109 57.0452C37.5523 57.0155 37.5796 56.9863 37.6211 56.9566C37.6557 56.9342 37.6898 56.8977 37.7244 56.8753C37.759 56.8529 37.7932 56.8163 37.8278 56.7939C37.8624 56.7715 37.8965 56.735 37.9311 56.7126C37.9658 56.6902 37.9999 56.6536 38.0345 56.6312C38.0691 56.6088 38.1033 56.5723 38.1379 56.5499C38.1725 56.5275 38.2066 56.491 38.2412 56.4686C38.2759 56.4462 38.31 56.4096 38.3446 56.3872C38.3792 56.3648 38.4133 56.3283 38.448 56.3059C38.4826 56.2835 38.5167 56.247 38.5513 56.2245C38.5859 56.2021 38.6201 56.1656 38.6547 56.1432C38.6893 56.1208 38.7234 56.0843 38.7581 56.0619C38.7927 56.0395 38.8268 56.0029 38.8614 55.9805C38.8887 55.9513 38.9302 55.9216 38.9575 55.8924C38.9848 55.8631 39.0262 55.8334 39.0535 55.8042C39.0808 55.775 39.1223 55.7453 39.1496 55.716C39.1769 55.6868 39.2115 55.6644 39.2456 55.6279C39.2729 55.5986 39.3144 55.5689 39.3417 55.5397C39.369 55.5105 39.4036 55.4881 39.4309 55.4588C39.4582 55.4296 39.4997 55.3999 39.527 55.3707C39.5543 55.3414 39.5889 55.3191 39.6162 55.2898C39.6435 55.2606 39.685 55.2309 39.7123 55.2017C39.7396 55.1724 39.7742 55.15 39.8015 55.1208C39.8288 55.0916 39.8702 55.0619 39.8976 55.0326C39.9249 55.0034 39.9595 54.981 39.9868 54.9518C40.0141 54.9225 40.0555 54.8928 40.0828 54.8636C40.1101 54.8344 40.1374 54.8051 40.1721 54.7827C40.1994 54.7535 40.2335 54.717 40.2681 54.6946C40.2954 54.6654 40.3227 54.6361 40.3574 54.6137C40.3847 54.5845 40.412 54.5553 40.4534 54.5256C40.4807 54.4963 40.508 54.4671 40.5353 54.4379C40.5626 54.4086 40.5968 54.3721 40.6241 54.3429C40.6514 54.3136 40.6787 54.2844 40.6992 54.2625C40.7265 54.2333 40.7538 54.204 40.7879 54.1675C40.8152 54.1383 40.8425 54.109 40.863 54.0871C40.8903 54.0579 40.9176 54.0287 40.9449 53.9994C40.9722 53.9702 40.9927 53.9483 41.02 53.9191C41.0473 53.8898 41.0747 53.8606 41.102 53.8314C41.1293 53.8021 41.1497 53.7802 41.1771 53.751C41.2044 53.7218 41.2317 53.6925 41.259 53.6633C41.2863 53.6341 41.3068 53.6122 41.3341 53.5829C41.3614 53.5537 41.3887 53.5245 41.416 53.4953C41.4365 53.4733 41.4638 53.4441 41.4843 53.4222C41.5116 53.3929 41.5389 53.3637 41.573 53.3272C41.5935 53.3053 41.6208 53.276 41.6413 53.2541C41.6686 53.2249 41.7027 53.1884 41.7227 53.1523C41.7296 53.145 41.7432 53.1304 41.75 53.1231C43.9723 54.3918 46.2614 55.5451 48.6032 56.5834C49.2639 56.8723 49.9246 57.1611 50.599 57.4354L51.8401 57.938C54.4718 58.9735 57.149 59.8872 59.8593 60.7361C55.2267 60.9926 45.7032 62.6463 42.2769 71.543C41.6073 73.285 41.4732 74.5419 41.7427 75.3959C41.7427 75.3959 41.7501 75.4027 41.7432 75.41C41.7671 75.487 41.7977 75.5567 41.8284 75.6265C41.8284 75.6265 41.8357 75.6333 41.8289 75.6406C41.8596 75.7103 41.8971 75.7727 41.9277 75.8424C42.01 75.974 42.0987 76.0842 42.2014 76.1939C42.2526 76.2417 42.3037 76.2895 42.3617 76.33L42.369 76.3368C42.427 76.3773 42.485 76.4178 42.5498 76.451C42.5498 76.451 42.5498 76.451 42.5571 76.4578C42.752 76.5714 42.9669 76.649 43.2022 76.7047C43.2022 76.7047 43.2096 76.7115 43.2164 76.7042C43.2948 76.7228 43.3801 76.7341 43.4586 76.7526C43.4586 76.7526 43.4659 76.7594 43.4727 76.7521C43.7286 76.7859 44.0049 76.7977 44.3012 76.7735L44.3154 76.773C44.4143 76.7697 44.5059 76.7595 44.6117 76.7488L44.6258 76.7483C44.9358 76.7095 45.2663 76.6487 45.6099 76.5592C45.6168 76.5519 45.6241 76.5587 45.6309 76.5514C45.743 76.5193 45.8483 76.4945 45.9672 76.4551C45.974 76.4478 45.9882 76.4473 45.9882 76.4473C46.1003 76.4152 46.2192 76.3758 46.3382 76.3364L46.345 76.3291C46.5829 76.2502 46.8344 76.1568 47.0859 76.0633C47.0928 76.056 47.1069 76.0556 47.1069 76.0556C47.2327 76.0088 47.3511 75.9553 47.4769 75.9086C47.491 75.9081 47.4978 75.9008 47.5188 75.893C47.6373 75.8394 47.7699 75.7854 47.8883 75.7318C47.8951 75.7245 47.9093 75.7241 47.9093 75.7241C48.1672 75.6092 48.4245 75.4801 48.6961 75.3506C48.7029 75.3433 48.717 75.3429 48.7239 75.3355C48.8491 75.2747 48.9813 75.2065 49.1061 75.1315C49.127 75.1237 49.1339 75.1164 49.1548 75.1086C49.2869 75.0405 49.4117 74.9655 49.5438 74.8973C49.5507 74.89 49.5716 74.8822 49.5785 74.8749C49.8422 74.7245 50.1196 74.5594 50.397 74.3943C50.4038 74.387 50.418 74.3865 50.4248 74.3792C50.5564 74.2969 50.688 74.2146 50.8197 74.1323C50.8406 74.1245 50.8543 74.1099 50.8752 74.1021C51.0069 74.0198 51.1385 73.9375 51.2628 73.8484C51.2765 73.8338 51.2975 73.826 51.3111 73.8114C51.4496 73.7218 51.5739 73.6326 51.7123 73.543C51.7192 73.5357 51.726 73.5284 51.7401 73.5279C51.8786 73.4383 52.0097 73.3419 52.1409 73.2455C52.1477 73.2382 52.1545 73.2309 52.1687 73.2304C52.2998 73.1339 52.431 73.0375 52.5621 72.9411C52.5758 72.9265 52.6036 72.9114 52.6172 72.8967C52.7484 72.8003 52.8795 72.7039 53.0034 72.6006C53.0239 72.5787 53.0448 72.5709 53.0653 72.549C53.1964 72.4526 53.3271 72.342 53.4583 72.2456C53.4719 72.2309 53.4861 72.2305 53.4997 72.2159C53.6377 72.1121 53.7615 72.0089 53.8922 71.8983C53.899 71.891 53.9059 71.8837 53.9127 71.8764C54.0433 71.7658 54.174 71.6552 54.3047 71.5447C54.3252 71.5227 54.3461 71.5149 54.3666 71.493C54.4905 71.3898 54.6211 71.2792 54.7377 71.1691C54.7582 71.1472 54.7859 71.1321 54.8064 71.1102C54.9371 70.9996 55.0536 70.8895 55.1843 70.779C55.1979 70.7643 55.2184 70.7424 55.2394 70.7346C55.3628 70.6172 55.5003 70.4994 55.6236 70.382L55.6304 70.3747C55.7538 70.2573 55.884 70.1326 56.0074 70.0152C56.0278 69.9933 56.0415 69.9786 56.062 69.9567C56.1853 69.8393 56.3087 69.7219 56.4179 69.605C56.4384 69.5831 56.4589 69.5612 56.4794 69.5393C56.6027 69.4219 56.7188 69.2976 56.828 69.1807C56.8485 69.1588 56.8622 69.1442 56.8826 69.1223C57.0055 68.9907 57.1216 68.8665 57.2445 68.735C57.2513 68.7277 57.2513 68.7277 57.2581 68.7204C57.3742 68.5961 57.4971 68.4646 57.6131 68.3404C57.6268 68.3258 57.6472 68.3039 57.6609 68.2892C57.777 68.165 57.8857 68.034 58.0018 67.9098C58.0222 67.8878 58.0427 67.8659 58.0632 67.844C58.172 67.7129 58.2812 67.596 58.3899 67.465C58.4104 67.4431 58.4309 67.4211 58.4441 67.3924C58.5528 67.2613 58.6616 67.1303 58.7771 66.9919C58.784 66.9846 58.7976 66.97 58.8044 66.9627C58.9132 66.8317 59.0146 66.6938 59.1234 66.5627C59.137 66.5481 59.1507 66.5335 59.157 66.5121C59.2585 66.3742 59.3672 66.2431 59.4619 66.1126C59.4823 66.0907 59.4955 66.0619 59.516 66.04C59.6106 65.9094 59.712 65.7715 59.8067 65.641C59.8271 65.6191 59.8403 65.5903 59.8608 65.5684C59.9622 65.4305 60.0495 65.2931 60.1437 65.1484C60.1573 65.1338 60.1637 65.1124 60.1705 65.1051C60.2578 64.9677 60.3519 64.823 60.4393 64.6856C60.4461 64.6783 60.4524 64.6568 60.4593 64.6495C60.5534 64.5048 60.6407 64.3674 60.7207 64.2232C60.7339 64.1944 60.7544 64.1725 60.7607 64.1511C60.848 64.0137 60.928 63.8695 61.0012 63.7326C61.0144 63.7038 61.0348 63.6819 61.048 63.6531C61.128 63.5089 61.208 63.3647 61.2812 63.2278C61.2875 63.2063 61.3012 63.1917 61.3075 63.1703C61.3875 63.0261 61.4602 62.875 61.5402 62.7308C61.5471 62.7235 61.5539 62.7162 61.5466 62.7093C61.6193 62.5583 61.692 62.4073 61.7578 62.2635C61.7642 62.2421 61.7774 62.2133 61.791 62.1987C61.8569 62.055 61.9227 61.9112 61.9886 61.7675C62.0018 61.7387 62.015 61.71 62.0213 61.6885C62.054 61.6096 62.0867 61.5307 62.1262 61.4444C66.2 62.6503 70.3197 63.7484 74.4057 64.8973L76.3345 65.4402C78.5994 66.092 80.8512 66.7725 83.0767 67.5105C78.8365 69.5295 65.5523 76.2778 64.7139 81.3792C64.4626 82.9372 64.9957 84.0511 66.0096 84.7383C66.0242 84.7519 66.0383 84.7515 66.0529 84.7651C66.2337 84.8793 66.4213 84.9861 66.6298 85.0851C66.6513 85.0915 66.6586 85.0983 66.68 85.1046C66.8881 85.1895 67.1103 85.274 67.3388 85.337C67.3603 85.3433 67.3744 85.3428 67.3958 85.3492C67.5172 85.3804 67.6312 85.4049 67.7525 85.4361C67.7525 85.4361 67.7599 85.4429 67.7667 85.4356C67.8807 85.4601 68.0016 85.4772 68.1297 85.5011C68.1512 85.5075 68.1653 85.507 68.1868 85.5133C68.3076 85.5304 68.4426 85.5471 68.5703 85.5569C68.5844 85.5564 68.5917 85.5632 68.6059 85.5628C68.7336 85.5726 68.8539 85.5756 68.9816 85.5854C68.9958 85.5849 69.0172 85.5912 69.0382 85.5835C69.1727 85.586 69.3072 85.5885 69.4485 85.5837C69.4627 85.5832 69.4909 85.5822 69.5051 85.5817C69.6323 85.5774 69.7595 85.5731 69.8935 85.5615C69.9076 85.561 69.9218 85.5605 69.9427 85.5527C70.0841 85.5479 70.2249 85.529 70.3658 85.51C70.3941 85.5091 70.415 85.5013 70.4365 85.5076C70.5705 85.496 70.704 85.4702 70.8381 85.4586C70.8522 85.4581 70.8663 85.4577 70.8805 85.4572C71.0213 85.4382 71.169 85.412 71.3167 85.3857C71.345 85.3848 71.3728 85.3697 71.401 85.3687C71.5414 85.3357 71.6823 85.3167 71.8295 85.2763C71.8363 85.269 71.8436 85.2759 71.8504 85.2686C71.9976 85.2282 72.1522 85.1946 72.2994 85.1543C72.3345 85.146 72.3554 85.1382 72.3905 85.1299C72.6849 85.0492 72.9857 84.947 73.2791 84.838C73.3142 84.8297 73.342 84.8146 73.3771 84.8063C73.5238 84.7518 73.6706 84.6973 73.8241 84.6355C73.8309 84.6282 73.8451 84.6277 73.8451 84.6277C73.9845 84.5664 74.1171 84.5123 74.2565 84.451C74.2843 84.4359 74.3262 84.4203 74.354 84.4052C74.5003 84.3366 74.6397 84.2752 74.7786 84.1998C74.7996 84.192 74.8132 84.1774 74.8342 84.1696C74.9663 84.1014 75.0916 84.0405 75.2164 83.9656C75.2442 83.9505 75.2788 83.9281 75.3066 83.913C75.4455 83.8375 75.5771 83.7552 75.7229 83.6724C75.7507 83.6573 75.7644 83.6427 75.7921 83.6276C75.9169 83.5526 76.0276 83.4781 76.1524 83.4031C76.1802 83.388 76.2148 83.3656 76.2353 83.3437C76.3738 83.2541 76.4981 83.165 76.6292 83.0685C76.657 83.0534 76.6843 83.0242 76.7121 83.0091C76.8296 82.9273 76.9398 82.8387 77.05 82.75C77.0705 82.7281 77.0983 82.713 77.1187 82.6911C77.2426 82.5878 77.3664 82.4845 77.4903 82.3813C77.5176 82.3521 77.5454 82.337 77.5727 82.3077C77.6824 82.205 77.7926 82.1163 77.895 82.0067C77.9086 81.9921 77.9291 81.9702 77.9428 81.9556C78.0593 81.8455 78.1754 81.7212 78.2919 81.6112C78.3192 81.5819 78.3465 81.5527 78.3738 81.5235C78.4762 81.4139 78.5855 81.297 78.6806 81.1805C78.6874 81.1732 78.701 81.1586 78.7079 81.1513C78.8166 81.0202 78.9185 80.8965 79.0273 80.7655C79.0546 80.7362 79.0746 80.7002 79.1019 80.6709C79.2033 80.5331 79.3121 80.402 79.3994 80.2646C82.3408 76.0469 83.6075 72.0984 84.1591 69.5892C84.3056 68.905 84.3995 68.3358 84.4621 67.888C88.106 69.1438 91.6923 70.5785 95.1479 72.3289L95.2127 72.3621C95.256 72.3889 95.3062 72.4084 95.3496 72.4352L96.4732 73.0197C96.4732 73.0197 96.4732 73.0197 96.4873 73.0192C96.5667 73.066 96.653 73.1055 96.7324 73.1524L96.7684 73.1724C97.511 73.5787 98.2467 73.9924 98.9761 74.4275C107.758 79.676 115.263 86.9065 120.853 95.4685C121.39 96.2992 122.582 95.3319 122.051 94.508C117.11 86.9357 110.654 80.37 103.18 75.2893C101.463 74.1236 99.6864 73.052 97.8841 72.0661L96.436 71.3017C92.7632 69.403 88.9386 67.8278 85.0291 66.4607C85.1174 66.3516 85.1983 66.2357 85.2793 66.1197C85.2998 66.0978 85.3198 66.0617 85.3403 66.0398C85.4485 65.8946 85.5495 65.7426 85.6505 65.5906C85.6641 65.576 85.6636 65.5619 85.6773 65.5472C85.7714 65.4025 85.8656 65.2578 85.9597 65.1131C85.9729 65.0844 85.9865 65.0698 86.007 65.0479C86.0938 64.8963 86.188 64.7516 86.2748 64.6001C86.288 64.5713 86.308 64.5353 86.3285 64.5134C86.4153 64.3618 86.4953 64.2176 86.568 64.0666C86.5743 64.0451 86.5948 64.0232 86.6011 64.0018C86.6738 63.8507 86.747 63.7138 86.8197 63.5628C86.8261 63.5413 86.8329 63.534 86.8465 63.5194C86.9192 63.3683 86.9846 63.2105 87.0505 63.0667C87.0637 63.038 87.0768 63.0092 87.09 62.9805C87.1486 62.8299 87.2144 62.6862 87.2657 62.5288C87.2789 62.5 87.2852 62.4786 87.2984 62.4498C87.3569 62.2993 87.4082 62.1419 87.4668 61.9913L87.4736 61.984C87.5248 61.8266 87.5761 61.6692 87.6273 61.5118C87.6405 61.4831 87.6396 61.4548 87.6527 61.4261C87.6971 61.276 87.7416 61.1259 87.7787 60.969C87.7846 60.9334 87.7977 60.9046 87.7968 60.8764C87.8339 60.7195 87.8783 60.5694 87.9086 60.4198C87.9081 60.4056 87.9145 60.3842 87.9213 60.3769C87.9516 60.2273 87.9892 60.0845 88.0127 59.9422C88.019 59.9208 88.0181 59.8925 88.0244 59.871C88.0547 59.7214 88.0777 59.565 88.1011 59.4227C88.107 59.3871 88.106 59.3589 88.1119 59.3233C88.1281 59.1742 88.1584 59.0246 88.1745 58.8754C88.1809 58.854 88.1799 58.8257 88.1862 58.8043C88.2024 58.6552 88.219 58.5202 88.2284 58.3783C88.2279 58.3642 88.2342 58.3428 88.2338 58.3286C88.2499 58.1795 88.2519 58.0309 88.2608 57.8749C88.2598 57.8466 88.2657 57.8111 88.2647 57.7828C88.2668 57.6341 88.2761 57.4923 88.2781 57.3437C88.2772 57.3154 88.2762 57.2871 88.2752 57.2589C88.2773 57.1102 88.2793 56.9616 88.2813 56.8129L88.2808 56.7988C88.2829 56.6501 88.2776 56.4947 88.2655 56.3465C88.2645 56.3182 88.2635 56.29 88.2626 56.2617C88.2578 56.1204 88.2457 55.9722 88.2409 55.8309C88.2399 55.8026 88.2389 55.7743 88.2307 55.7392C88.2186 55.5911 88.2065 55.4429 88.1875 55.302C88.187 55.2879 88.1866 55.2738 88.1861 55.2596C88.1745 55.1256 88.1555 54.9847 88.1366 54.8439C88.1356 54.8156 88.1278 54.7946 88.1269 54.7664C88.1079 54.6255 88.089 54.4847 88.0632 54.3511C88.0111 54.2751 88.0102 54.2468 88.0019 54.2117Z" fill="#3D4775"/>
</svg>
