<svg width="183" height="70" viewBox="0 0 183 70" fill="none" xmlns="http://www.w3.org/2000/svg">
<path d="M133.722 56.2745C132.382 64.9826 137.541 76.2333 139.566 80.2219C134.788 76.9317 129.935 73.9618 125.007 71.327C123.683 42.1848 108.506 15.4233 108.506 15.4233C108.506 15.4233 110.75 21.8937 112.994 40.1497C114.977 56.2638 121.444 67.0636 123.999 70.7936C119.355 68.3597 114.662 66.2239 109.922 64.3919C108.204 63.728 106.478 63.1067 104.751 62.5247C100.325 54.7762 103.351 41.2212 100.881 28.5251C99.0242 18.9698 84.6541 10.2582 84.6541 10.2582C84.6541 10.2582 96.6942 19.3291 95.2117 34.2163C94.0271 46.1066 101.55 58.1179 104.627 62.4841C99.128 60.6413 93.5787 59.2053 88.0012 58.1874C87.5227 55.5219 85.8359 46.6251 83.2587 37.9128C80.2182 27.6494 69.1709 5.8251 69.1709 5.8251C69.1709 5.8251 69.4796 15.4051 72.6675 28.5459C75.2467 39.1619 85.0304 54.3129 87.5488 58.1017C82.9105 57.2752 78.2526 56.7306 73.5783 56.4736C72.797 53.8496 70.1144 44.9781 66.8596 35.8771C62.9797 25.0348 45.5348 0.518977 45.5348 0.518977C45.5348 0.518977 48.3997 8.57081 54.3579 25.8505C59.4836 40.7046 70.1628 53.2291 73.062 56.4537C68.8472 56.2399 64.6223 56.2562 60.3906 56.5085C57.3613 54.9811 48.262 51.7835 29.5765 55.279C7.60088 59.3874 0.877191 62.4105 0.877191 62.4105C0.877191 62.4105 41.1028 68.8507 60.1837 58.0695C64.0197 57.8321 67.7774 57.8001 71.4578 57.9341C67.8806 60.7093 55.1958 70.9848 45.1091 84.75C33.2512 100.939 30.3057 106.21 30.3057 106.21C30.3057 106.21 55.5282 84.2144 62.6384 73.6009C68.2456 65.2255 71.098 59.8574 72.0568 57.963C77.083 58.1826 81.964 58.737 86.6783 59.5606C83.2161 62.3195 70.3196 73.2526 65.9982 85.9586C60.9866 100.691 50.6521 108.165 50.6521 108.165C50.6521 108.165 62.2533 103.514 71.9452 85.3731C79.9871 70.3247 85.4147 62.0165 87.0379 59.6197C93.2233 60.7236 99.1267 62.2913 104.724 64.212C101.492 66.3185 91.8023 73.3239 86.0102 84.8278C78.9791 98.7897 65.9906 112.506 65.9906 112.506C65.9906 112.506 86.2735 99.3806 96.563 83.29C103.984 71.6857 105.507 66.5488 105.779 64.5804C112.136 66.8141 118.096 69.4888 123.626 72.3911C120.626 73.8211 110.954 79.0821 101.769 91.2088C90.7166 105.796 82.1953 117.103 82.1953 117.103C82.1953 117.103 117.924 89.8932 124.308 72.7463C129.787 75.6686 134.832 78.8128 139.412 82.0015C136.66 82.9478 128.451 86.4647 122.163 96.2345C114.5 108.141 109.341 111.665 101.902 115.458C101.902 115.458 118.526 110.223 124.676 102.039C131.868 92.4651 134.861 84.922 139.58 82.1191C142.639 84.2498 145.482 86.3976 148.109 88.493C169.197 105.366 181.166 123.218 181.29 123.398C181.53 123.754 182.008 123.857 182.369 123.629C182.413 123.597 182.457 123.566 182.498 123.528C182.745 123.277 182.792 122.879 182.591 122.563C182.472 122.38 170.392 104.357 149.122 87.3279C146.231 85.0126 143.304 82.8257 140.342 80.7579C140.304 77.1239 140.198 63.8556 140.706 55.1304C141.297 44.9425 125.673 25.5259 125.673 25.5259C125.673 25.5259 135.383 45.5026 133.722 56.2745Z" fill="#E5674E"/>
</svg>
