<svg width="170" height="53" viewBox="0 0 170 53" fill="none" xmlns="http://www.w3.org/2000/svg">
<path d="M33.3551 77.2577C36.9617 85.6894 34.6182 98.2343 33.5936 102.727C37.5877 98.2673 41.7533 94.1201 46.0697 90.293C39.9139 60.6788 48.4074 30.1342 48.4074 30.1342C48.4074 30.1342 47.7962 37.1741 50.2195 56.0624C52.3593 72.731 48.5819 85.1455 46.9473 89.5032C51.0278 85.9412 55.2419 82.6681 59.5796 79.6829C61.1476 78.6002 62.7408 77.5691 64.3412 76.5683C66.8392 67.7236 60.2691 54.8124 59.504 41.4708C58.932 31.4177 71.2556 19.2174 71.2556 19.2174C71.2556 19.2174 61.3804 31.2254 66.7165 45.8328C70.9835 57.4968 66.4451 71.3837 64.4472 76.5088C69.5457 73.3359 74.8074 70.5633 80.2125 68.1891C80.0131 65.394 79.4246 56.051 79.804 46.6676C80.2494 35.6201 85.8328 11.0367 85.8328 11.0367C85.8328 11.0367 87.9943 20.7402 88.1374 34.717C88.262 46.0041 82.2313 63.5897 80.6518 68.0018C85.1427 66.0583 89.7282 64.3903 94.4075 63.0075C94.5223 60.1817 94.9581 50.6256 95.9214 40.6924C97.0842 28.8504 108.469 0.0215899 108.469 0.0215899C108.469 0.0215899 107.635 8.80027 106.039 27.5997C104.671 43.7614 97.062 58.9106 94.9446 62.8488C99.1673 61.6222 103.458 60.629 107.819 59.8596C110.502 57.5936 118.903 52.1912 138.768 51.2214C162.125 50.0752 169.725 51.488 169.725 51.488C169.725 51.488 130.568 67.6313 108.439 61.3786C104.489 62.0569 100.662 62.9242 96.97 63.9522C101.318 65.8795 116.833 73.161 130.604 84.5729C146.807 97.9948 151.146 102.58 151.146 102.58C151.146 102.58 119.895 86.5338 109.941 77.5741C102.099 70.5063 97.8109 65.7976 96.3523 64.1134C91.3072 65.5419 86.5052 67.2693 81.9319 69.2349C86.1479 71.1799 102.058 79.0607 109.713 90.7957C118.588 104.401 131.001 109.424 131.001 109.424C131.001 109.424 118.032 107.542 103.528 91.6364C91.4909 78.4453 83.847 71.4054 81.5867 69.3814C75.5983 71.9792 70.0148 74.9697 64.8266 78.2431C68.6469 79.5888 80.2762 84.2933 89.1221 94.4666C99.8532 106.808 116.556 117.478 116.556 117.478C116.556 117.478 92.5922 109.161 78.0118 95.4619C67.4914 85.5811 64.628 80.7846 63.8433 78.8751C57.9653 82.649 52.6073 86.7668 47.7489 91.0189C51.1664 91.735 62.3267 94.6972 74.7753 104.684C89.7458 116.689 101.304 126.003 101.304 126.003C101.304 126.003 58.0448 107.244 47.1578 91.5384C42.3501 95.7852 38.042 100.167 34.2128 104.473C37.2481 104.769 46.4921 106.321 55.3825 114.631C66.2211 124.758 72.3622 127.056 80.8885 129.087C80.8885 129.087 62.6692 127.824 54.325 121.077C44.5621 113.182 39.5824 106.325 34.0768 104.638C31.5274 107.509 29.1917 110.351 27.0652 113.102C10.0022 135.129 2.46267 155.947 2.38359 156.148C2.23355 156.569 1.77149 156.784 1.34348 156.636C1.28466 156.621 1.23763 156.587 1.18969 156.563C0.876736 156.366 0.722523 155.977 0.847123 155.613C0.917163 155.402 8.53576 134.383 25.7277 112.16C28.06 109.141 30.4719 106.237 32.9433 103.448C32.0518 99.7896 28.7381 86.4236 25.9757 77.7723C22.7565 67.6761 33.5998 44.4013 33.5998 44.4013C33.5998 44.4013 28.9025 66.822 33.3551 77.2577Z" fill="#FCF4DF"/>
</svg>
