<svg width="107" height="73" viewBox="0 0 107 73" fill="none" xmlns="http://www.w3.org/2000/svg">
<path d="M0.803474 19.4574C0.803474 19.4574 31.5996 94.766 74.5452 125.004C89.1157 135.266 102.262 139.772 113.274 141.238C136.232 144.301 154.1 122.096 145.947 100.644C142.038 90.3565 134.66 78.6894 121.289 66.9332C81.8826 32.2936 0.803474 19.4574 0.803474 19.4574Z" fill="#1A4143"/>
<path d="M110.833 104.077C107.981 101.84 105.135 99.6018 102.283 97.3652C104.791 84.3005 107.306 71.2343 109.813 58.1631C109.459 57.9242 109.105 57.6854 108.746 57.4546C106.243 70.4836 103.74 83.5127 101.238 96.5418C98.5457 94.4282 95.8457 92.3095 93.1538 90.196C95.353 77.66 98.1117 65.2284 101.426 52.9434C101.074 52.7453 100.728 52.5392 100.376 52.3411C97.0666 64.5563 94.3096 76.905 92.1004 89.3674C89.5105 87.3347 86.9207 85.3019 84.3309 83.2691C86.9344 71.4908 89.5393 59.719 92.1427 47.9407C91.7808 47.7586 91.419 47.5765 91.0505 47.3958C88.4671 59.0803 85.8786 70.7729 83.2953 82.4574C80.579 80.3285 77.8678 78.1916 75.1515 76.0628C76.6243 64.8695 78.5569 53.7404 80.9569 42.7085C80.5863 42.5489 80.2223 42.3879 79.8533 42.2349C77.4739 53.1454 75.5472 64.1493 74.0738 75.2189C71.2798 73.0245 68.4858 70.8302 65.6852 68.6372C67.1469 58.6022 69.0419 48.6372 71.3714 38.7766C71.0038 38.6301 70.6311 38.4917 70.2636 38.3452C67.9599 48.0764 66.0743 57.9017 64.6155 67.7985C62.3401 66.0133 60.0632 64.2215 57.7878 62.4363C58.7377 53.3184 60.1033 44.2539 61.884 35.2703C61.5062 35.1399 61.1351 35.008 60.7573 34.8776C58.9978 43.712 57.6438 52.6157 56.6922 61.5757C53.916 59.3981 51.1398 57.2204 48.3635 55.0428C48.4259 47.1722 49.3406 39.3486 51.0854 31.687C50.7107 31.5696 50.3359 31.4523 49.9545 31.3364C48.2448 38.8183 47.3275 46.4498 47.2014 54.1349C46.2583 53.3923 45.3085 52.6511 44.3653 51.9085C44.2854 51.7127 44.1173 51.5569 43.8726 51.5211C43.1854 50.9838 42.5048 50.4451 41.8176 49.9078C41.4292 43.0373 42.2906 36.1886 44.3629 29.6454C43.983 29.5361 43.6097 29.4253 43.2299 29.3159C41.2308 35.6642 40.338 42.2858 40.5941 48.9445C38.5132 47.3093 36.4338 45.6806 34.353 44.0454C34.4871 38.4157 35.0405 32.8247 36.011 27.2937C35.6261 27.1924 35.2477 27.0896 34.8627 26.9882C33.9242 32.3265 33.3749 37.7239 33.2071 43.1477C31.272 41.6318 29.342 40.108 27.4068 38.5922C28.0904 34.8922 28.7688 31.2003 29.4523 27.5003C29.5622 26.8914 29.6839 26.2731 29.7938 25.6642C29.4103 25.5694 29.0335 25.4731 28.6566 25.3769C28.491 26.287 28.3091 27.1868 28.1404 28.0838C27.5426 31.3109 26.9513 34.5365 26.3534 37.7636C24.7149 36.4786 23.0846 35.1987 21.446 33.9136C21.4774 30.5218 21.6487 27.1337 21.9762 23.7595C21.5861 23.6661 21.1975 23.5794 20.8156 23.4911C20.5074 26.6478 20.3275 29.8176 20.2809 32.9926C18.3702 31.4921 16.461 29.9981 14.5568 28.4961C14.6486 26.3913 14.834 24.3005 15.1262 22.2206C14.731 22.1352 14.3439 22.055 13.9635 21.9733C13.7054 23.8393 13.521 25.7236 13.4206 27.61C12.2667 26.7072 11.1193 25.803 9.96534 24.9002C10.0127 23.6583 10.0535 22.4178 10.1024 21.1825C9.70053 21.0986 9.31497 21.0249 8.93603 20.9497C8.8999 21.969 8.86376 22.9883 8.82612 24.001C7.10329 22.6519 5.38709 21.3014 3.66275 19.9457C1.81321 19.6151 0.803436 19.4581 0.803436 19.4581C0.803436 19.4581 1.17468 20.3743 1.89928 22.0386C3.81814 23.5443 5.73701 25.0499 7.65589 26.5555C6.42594 26.5294 5.20389 26.5978 3.99184 26.7398C4.15888 27.1022 4.32742 27.4711 4.49898 27.8532C6.06221 27.6962 7.64903 27.6716 9.25072 27.802C10.5911 28.8497 11.9264 29.9054 13.2667 30.9531C10.8694 30.9008 8.49909 31.0559 6.15572 31.4184C6.32275 31.7808 6.4964 32.1418 6.67308 32.5158C9.14826 32.152 11.6712 32.0253 14.2022 32.1446C14.3716 32.1556 14.5046 32.0989 14.6101 32.0138C17.0735 33.9505 19.5353 35.8806 21.9986 37.8172C17.901 38.0209 13.8167 38.3729 9.74932 38.8589C9.93111 39.2249 10.1144 39.5975 10.3043 39.9687C14.6506 39.456 19.0199 39.1034 23.3989 38.9137C25.6144 40.6501 27.8314 42.3931 30.0469 44.1296C24.4221 44.4961 18.8026 45.0059 13.2066 45.6481C13.3966 46.0193 13.5916 46.3824 13.7896 46.7587C19.6513 46.0926 25.5329 45.5734 31.4295 45.2093C34.1458 47.3382 36.8636 49.4736 39.5798 51.6024C32.1111 51.8435 24.6595 52.3698 17.2367 53.1718C17.4398 53.54 17.643 53.9083 17.8476 54.2831C25.5443 53.4623 33.2758 52.9435 41.0208 52.7244C42.8117 54.1274 44.6041 55.5369 46.395 56.9399C38.2979 58.5571 30.2008 60.1744 22.1037 61.7916C22.3104 62.1453 22.5172 62.499 22.7254 62.8593C31.016 61.2065 39.305 59.5471 47.6022 57.8929C51.0753 60.6195 54.5484 63.3461 58.0214 66.0727C47.4216 66.4568 36.8559 67.4114 26.3723 68.9327C26.5953 69.2966 26.8168 69.6539 27.0398 70.0178C37.7774 68.4821 48.5949 67.5343 59.4476 67.191C62.6307 69.6854 65.8071 72.1812 68.9917 74.6821C57.3743 76.7754 45.7504 78.8701 34.1331 80.9634C34.3744 81.3164 34.6091 81.6708 34.849 82.0173C46.6399 79.8928 58.4309 77.7683 70.2203 75.6373C71.4342 76.5889 72.6481 77.5405 73.8554 78.4935C75.3319 79.649 76.8033 80.8124 78.2798 81.9678C65.6069 84.5196 52.9273 87.0729 40.2544 89.6247C40.5075 89.9682 40.7621 90.3183 41.0218 90.6604C53.8403 88.0767 66.667 85.498 79.4855 82.9143C81.761 84.6995 84.0364 86.4848 86.3118 88.27C73.6102 92.1146 60.9086 95.9592 48.2085 99.8104C48.4784 100.137 48.7484 100.463 49.0249 100.787C61.7581 96.9288 74.4928 93.0769 87.226 89.2185C87.2973 89.196 87.3523 89.1633 87.4074 89.1305C90.66 91.6853 93.9111 94.2336 97.1637 96.7883C83.2953 100.579 69.4255 104.364 55.5571 108.154C55.8601 108.473 56.1646 108.799 56.4677 109.117C70.4155 105.309 84.3633 101.501 98.3096 97.686C100.747 99.6009 103.183 101.509 105.62 103.424C92.6301 108.55 79.6347 113.683 66.6444 118.809C66.9826 119.099 67.3193 119.383 67.6626 119.666C80.6712 114.529 93.688 109.398 106.697 104.261C109.288 106.301 111.884 108.332 114.476 110.371C102.562 116.637 90.2998 122.236 77.7471 127.149C78.1566 127.416 78.558 127.679 78.9645 127.934C91.4464 123.016 103.639 117.419 115.484 111.155C119.694 114.456 123.9 117.765 128.11 121.066C117.457 126.704 106.539 131.829 95.3991 136.446C95.9349 136.659 96.4612 136.86 96.994 137.06C107.872 132.514 118.531 127.473 128.934 121.952C128.995 121.917 129.049 121.878 129.093 121.827C130.866 123.213 132.634 124.608 134.407 125.994C126.107 130.862 117.805 135.723 109.512 140.589C110.109 140.706 110.703 140.81 111.289 140.908C119.326 136.195 127.362 131.481 135.4 126.774C137.151 128.151 138.908 129.527 140.656 130.898C141.249 130.211 141.812 129.489 142.345 128.753C141.861 128.371 141.376 127.988 140.891 127.606C142.875 119.473 144.859 111.339 146.844 103.212C146.645 102.499 146.411 101.786 146.156 101.072C144.059 109.65 141.969 118.226 139.874 126.811C138.31 125.578 136.741 124.354 135.177 123.121C137.567 112.951 139.949 102.776 142.34 92.6066C142.069 92.095 141.783 91.5798 141.491 91.0659C139.046 101.482 136.602 111.904 134.151 122.321C131.722 120.411 129.294 118.508 126.865 116.599C129.785 105.108 132.699 93.6199 135.619 82.1298C135.319 81.7346 135.019 81.3394 134.705 80.9405C131.752 92.5615 128.806 104.181 125.852 115.795C123.73 114.135 121.614 112.466 119.492 110.805C119.432 110.757 119.374 110.714 119.314 110.666C121.798 98.2804 124.935 86.041 128.706 73.9861C128.401 73.6608 128.09 73.3368 127.772 73.0143C123.965 85.1187 120.799 97.4126 118.277 109.847C118.005 109.632 117.733 109.416 117.462 109.207C117.414 109.149 117.354 109.1 117.292 109.073C115.517 107.68 113.742 106.287 111.966 104.888C113.641 91.4347 115.971 78.0788 118.936 64.8521C118.594 64.5762 118.257 64.2923 117.909 64.0178C114.876 77.2801 112.538 90.6308 110.833 104.077Z" fill="#2F8C91"/>
</svg>
