<svg width="183" height="110" viewBox="0 0 183 110" fill="none" xmlns="http://www.w3.org/2000/svg">
<path d="M49.2777 53.7256C50.6185 45.0175 45.4593 33.7668 43.4341 29.7782C48.2116 33.0683 53.0649 36.0383 57.9931 38.6731C59.3172 67.8153 74.4942 94.5768 74.4942 94.5768C74.4942 94.5768 72.2497 88.1063 70.0058 69.8504C68.0225 53.7362 61.5562 42.9365 59.0011 39.2065C63.645 41.6403 68.3384 43.7762 73.0779 45.6082C74.7965 46.2721 76.5221 46.8934 78.2489 47.4753C82.6752 55.2239 79.6485 68.7788 82.1194 81.475C83.9758 91.0303 98.3459 99.7419 98.3459 99.7419C98.3459 99.7419 86.3058 90.671 87.7883 75.7838C88.9729 63.8935 81.4501 51.8822 78.3729 47.516C83.872 49.3588 89.4213 50.7947 94.9988 51.8126C95.4773 54.4782 97.1641 63.375 99.7413 72.0873C102.782 82.3506 113.829 104.175 113.829 104.175C113.829 104.175 113.52 94.5949 110.332 81.4542C107.753 70.8381 97.9696 55.6872 95.4512 51.8984C100.089 52.7248 104.747 53.2695 109.422 53.5265C110.203 56.1504 112.886 65.022 116.14 74.1229C120.02 84.9652 137.465 109.481 137.465 109.481C137.465 109.481 134.6 101.429 128.642 84.1496C123.516 69.2955 112.837 56.7709 109.938 53.5464C114.153 53.7601 118.378 53.7438 122.609 53.4916C125.639 55.0189 134.738 58.2166 153.423 54.721C175.399 50.6126 182.123 47.5895 182.123 47.5895C182.123 47.5895 141.897 41.1494 122.816 51.9305C118.98 52.168 115.223 52.2 111.542 52.066C115.119 49.2907 127.804 39.0152 137.891 25.2501C149.749 9.06147 152.694 3.78963 152.694 3.78963C152.694 3.78963 127.472 25.7856 120.362 36.3992C114.754 44.7746 111.902 50.1426 110.943 52.037C105.917 51.8175 101.036 51.263 96.3217 50.4394C99.7839 47.6806 112.68 36.7475 117.002 24.0415C122.013 9.30917 132.348 1.83544 132.348 1.83544C132.348 1.83544 120.747 6.4858 111.055 24.627C103.013 39.6754 97.5853 47.9836 95.9621 50.3804C89.7766 49.2765 83.8733 47.7088 78.2758 45.7881C81.5079 43.6816 91.1977 36.6762 96.9898 25.1723C104.021 11.2104 117.009 -2.50639 117.009 -2.50639C117.009 -2.50639 96.7265 10.6195 86.437 26.71C79.0156 38.3143 77.4934 43.4512 77.2212 45.4197C70.8644 43.186 64.9037 40.5113 59.3738 37.609C62.3738 36.179 72.0456 30.918 81.231 18.7913C92.2834 4.20422 100.805 -7.10285 100.805 -7.10285C100.805 -7.10285 65.0757 20.1069 58.6918 37.2538C53.2128 34.3314 48.1681 31.1873 43.5876 27.9986C46.34 27.0523 54.5486 23.5354 60.8374 13.7655C68.5 1.85907 73.6595 -1.66445 81.0984 -5.45775C81.0984 -5.45775 64.4739 -0.223251 58.3237 7.96095C51.132 17.535 48.1395 25.078 43.4203 27.881C40.3613 25.7503 37.518 23.6025 34.8907 21.5071C13.8027 4.63421 1.83448 -13.218 1.7098 -13.3977C1.46972 -13.7544 0.992103 -13.8573 0.631331 -13.6293C0.587173 -13.5974 0.543 -13.5655 0.502163 -13.5277C0.255336 -13.2767 0.207776 -12.8791 0.409259 -12.5633C0.528 -12.3803 12.6083 5.64297 33.8777 22.6722C36.7689 24.9874 39.6965 27.1744 42.6578 29.2422C42.696 32.8761 42.8017 46.1445 42.294 54.8697C41.7027 65.0576 57.3271 84.4742 57.3271 84.4742C57.3271 84.4742 47.6174 64.4975 49.2777 53.7256Z" fill="#E5674E"/>
</svg>
