<svg width="140" height="113" viewBox="0 0 140 113" fill="none" xmlns="http://www.w3.org/2000/svg">
<path d="M32.3199 109.138C32.3199 109.138 123.725 93.5303 159.106 52.8026C171.112 38.9777 176.091 25.3051 177.418 13.2695C180.196 -11.8329 152.08 -37.6015 126.021 -33.8542C113.52 -32.0573 99.4705 -26.7064 85.5672 -14.6138C44.6192 21.0015 32.3199 109.138 32.3199 109.138Z" fill="#BAE3DD"/>
<path d="M131.761 6.58483C129.125 9.22983 126.502 11.8755 123.866 14.5205C107.67 8.37808 91.4678 2.22931 75.2727 -3.91306C74.9927 -3.57701 74.7204 -3.23457 74.448 -2.89212C90.6026 3.23623 106.757 9.36458 122.904 15.4865C120.42 17.9882 117.922 20.4892 115.438 22.9908C99.9042 17.3268 84.4789 11.0712 69.2098 4.21428C68.9753 4.55858 68.7407 4.90287 68.5112 5.24139C83.692 12.0639 99.0289 18.3152 114.466 23.9685C112.08 26.3724 109.681 28.7758 107.295 31.1797C92.6824 25.2591 78.0627 19.3321 63.4505 13.4115C63.2387 13.775 63.0319 14.1327 62.8277 14.5026C77.3313 20.3817 91.8349 26.2609 106.339 32.14C103.826 34.6584 101.326 37.1774 98.8137 39.6958C84.9648 35.193 71.1812 30.193 57.4881 24.697C57.3092 25.0681 57.1251 25.445 56.9462 25.8161C70.4852 31.2624 84.1173 36.2249 97.8097 40.6959C95.2316 43.2895 92.6484 45.8889 90.0628 48.476C77.6403 44.2839 65.2883 39.6188 53.0394 34.4886C52.8806 34.8667 52.7168 35.2506 52.558 35.6287C64.6377 40.6965 76.8232 45.3112 89.0689 49.4646C86.965 51.5748 84.8688 53.6915 82.7649 55.8017C71.4916 52.4191 60.2785 48.5752 49.1358 44.2886C48.9922 44.6795 48.8486 45.0705 48.6974 45.455C59.6457 49.6779 70.6795 53.4708 81.7508 56.8134C79.1879 59.3896 76.6249 61.9658 74.062 64.5421C64.3672 62.4723 54.6945 59.4571 45.1803 55.5512C45.0493 55.9427 44.9259 56.3407 44.7949 56.7322C54.0869 60.5609 63.5172 63.5222 72.9924 65.6174C72.1196 66.4973 71.2518 67.3715 70.3714 68.2451C70.1367 68.2879 69.9424 68.4352 69.9173 68.7053C69.2867 69.3378 68.651 69.976 68.0203 70.6085C59.5706 69.2987 51.1047 66.5895 42.9586 62.5935C42.8352 62.9914 42.7244 63.3899 42.601 63.7879C50.5072 67.6516 58.7004 70.3416 66.8877 71.7411C64.9655 73.6732 63.0483 75.5996 61.1261 77.5318C54.1882 75.952 47.2778 73.9032 40.4251 71.4112C40.3169 71.8219 40.2061 72.2205 40.0902 72.6248C46.7081 75.0391 53.3685 77.0274 60.0666 78.5956C58.2781 80.3895 56.4896 82.1835 54.7137 83.9781C50.1359 82.2721 45.5456 80.5654 40.9678 78.8594C40.2104 78.5813 39.4503 78.2911 38.6929 78.013C38.5896 78.418 38.4864 78.8229 38.3882 79.2221C39.5118 79.6386 40.6329 80.073 41.7439 80.4888C45.746 81.9799 49.7404 83.4646 53.7425 84.9558C52.234 86.474 50.7254 87.9922 49.2169 89.5104C45.0335 88.6194 40.8576 87.5539 36.6942 86.3383C36.5935 86.7554 36.5054 87.1732 36.4148 87.5787C40.3207 88.7275 44.2215 89.7314 48.1423 90.5915C46.374 92.3624 44.6182 94.1338 42.8499 95.9047C40.257 95.272 37.6716 94.5251 35.0962 93.6762C35.0082 94.094 34.9201 94.5117 34.8421 94.9179C37.1574 95.6878 39.4777 96.3615 41.8005 96.9569C40.736 98.0265 39.6714 99.096 38.6069 100.166C37.082 99.8019 35.5495 99.4319 34.0195 99.074C33.934 99.504 33.8585 99.9223 33.7805 100.329C35.0353 100.625 36.2926 100.933 37.5474 101.229C35.9556 102.828 34.3689 104.421 32.7772 106.019C32.4655 108.036 32.3199 109.138 32.3199 109.138C32.3199 109.138 33.4304 108.951 35.4471 108.555C37.2205 106.778 38.9863 104.995 40.7647 103.213C40.7833 104.594 40.9231 105.988 41.1512 107.386C41.5879 107.292 42.0371 107.2 42.5015 107.09C42.2327 105.286 42.1407 103.491 42.2354 101.723C43.4765 100.481 44.705 99.2386 45.9461 97.9968C45.9858 100.682 46.283 103.403 46.8301 106.125C47.2642 106.019 47.7059 105.92 48.1602 105.822C47.6054 102.943 47.3384 100.066 47.3819 97.2407C47.3869 97.0541 47.3135 96.8817 47.21 96.744C49.4828 94.4551 51.7632 92.1726 54.0361 89.8837C54.4633 94.5529 55.0698 99.2429 55.8505 103.959C56.2897 103.848 56.7414 103.738 57.1907 103.615C56.3694 98.5827 55.7476 93.5785 55.3277 88.5841C57.3735 86.5253 59.4193 84.4665 61.4677 82.4199C62.1687 88.8569 63.0364 95.314 64.0631 101.785C64.5124 101.662 64.949 101.539 65.4033 101.41C64.3259 94.6352 63.4327 87.8754 62.7315 81.1369C65.244 78.6186 67.7489 76.0938 70.2564 73.5812C70.8755 82.058 71.8506 90.5944 73.159 99.1711C73.6057 99.0361 74.0524 98.9011 74.4991 98.7661C73.1577 89.8803 72.1824 81.0425 71.5858 72.2532C73.2457 70.5916 74.8929 68.9295 76.5477 67.2737C78.8867 76.811 81.2306 86.3425 83.5695 95.8797C83.996 95.7377 84.4226 95.5957 84.8541 95.4479C82.4545 85.6786 80.0624 75.9156 77.6577 66.1521C80.8614 62.9318 84.0701 59.7057 87.2738 56.4855C88.1957 68.5221 89.8347 80.6721 92.1603 92.8796C92.5969 92.726 93.0309 92.5602 93.4726 92.4009C91.119 79.9086 89.485 67.4816 88.5906 55.1569C91.5319 52.2072 94.4657 49.2511 97.402 46.3072C100.478 59.9319 103.555 73.5566 106.638 87.1877C107.062 87.0034 107.481 86.8248 107.905 86.6405C104.781 72.8145 101.649 58.9821 98.5245 45.1561C99.6471 44.0351 100.762 42.9077 101.885 41.7867C103.249 40.4182 104.614 39.0497 105.966 37.6807C109.659 52.6196 113.35 67.5463 117.043 82.4853C117.457 82.2823 117.866 82.0852 118.279 81.8823C114.546 66.7786 110.812 51.6749 107.076 36.559C109.18 34.4488 111.276 32.3322 113.38 30.222C118.664 45.5097 123.95 60.8095 129.234 76.0972C129.625 75.8751 130.016 75.653 130.399 75.4245C125.101 60.0939 119.802 44.7632 114.503 29.4326C114.473 29.3467 114.432 29.2724 114.382 29.2096C117.383 26.1906 120.385 23.1715 123.395 20.1588C128.657 36.7537 133.923 53.3429 139.185 69.9378C139.569 69.6791 139.952 69.4205 140.328 69.1554C135.036 52.4746 129.741 35.7816 124.449 19.1008C126.697 16.8408 128.945 14.5809 131.197 12.3151C138.074 28.2652 144.948 44.2031 151.825 60.1532C152.169 59.8503 152.509 59.5353 152.845 59.2261C145.958 43.2574 139.071 27.2888 132.191 11.3265C134.583 8.91677 136.981 6.51344 139.373 4.10372C147.605 19.119 155.029 34.3662 161.623 49.7659C161.936 49.3772 162.241 48.9821 162.541 48.5927C155.945 33.2713 148.52 18.1145 140.304 3.17234C144.189 -0.738259 148.076 -4.63666 151.961 -8.54725C159.358 4.88996 166.148 18.4965 172.319 32.2237C172.561 31.6748 172.785 31.131 173.01 30.5873C166.942 17.1787 160.274 3.8855 153.028 -9.24289C152.98 -9.3236 152.929 -9.38635 152.871 -9.45551C154.503 -11.1003 156.143 -12.7388 157.775 -14.3836C164.131 -3.79461 170.474 6.79379 176.83 17.3828C176.946 16.7373 177.051 16.1034 177.142 15.4566C170.993 5.20327 164.845 -5.05008 158.688 -15.3098C160.305 -16.9373 161.922 -18.5648 163.547 -20.1859C162.67 -21.0364 161.764 -21.8523 160.827 -22.6335C160.378 -22.1791 159.934 -21.7304 159.477 -21.2824C149.374 -25.5847 139.279 -29.8805 129.177 -34.1828C128.306 -34.1348 127.435 -34.0566 126.577 -33.9477C137.227 -29.4137 147.885 -24.8734 158.536 -20.3394C157.088 -18.8906 155.643 -17.4296 154.195 -15.9808C141.567 -21.2501 128.939 -26.5194 116.309 -31.8009C115.691 -31.62 115.068 -31.4333 114.447 -31.2344C127.382 -25.8356 140.318 -20.4367 153.249 -15.0321C151.006 -12.7779 148.764 -10.5237 146.521 -8.26951C132.249 -14.475 117.973 -20.6747 103.701 -26.8801C103.232 -26.6437 102.757 -26.4016 102.278 -26.1536C116.714 -19.8798 131.149 -13.6061 145.585 -7.33235C143.633 -5.36548 141.667 -3.39924 139.715 -1.43238C139.665 -1.37454 139.607 -1.3231 139.548 -1.27167C124.194 -7.21634 108.983 -13.8534 93.9763 -21.1618C93.5877 -20.8974 93.2067 -20.6265 92.8182 -20.3621C107.886 -13.0025 123.165 -6.30785 138.585 -0.317775C138.338 -0.0645301 138.078 0.1881 137.831 0.441331C137.757 0.479977 137.707 0.537819 137.677 0.602658C136.04 2.25328 134.395 3.8975 132.758 5.54812C116.119 0.246291 99.5705 -5.76256 83.1579 -12.4702C82.83 -12.1546 82.502 -11.8389 82.1741 -11.5233C98.5841 -4.76756 115.13 1.25925 131.761 6.58483Z" fill="#97C9CE"/>
</svg>
