<svg width="170" height="93" viewBox="0 0 170 93" fill="none" xmlns="http://www.w3.org/2000/svg">
<path d="M136.645 15.7423C133.038 7.31068 135.382 -5.23429 136.406 -9.72651C132.412 -5.26726 128.247 -1.12008 123.93 2.70703C130.086 32.3213 121.593 62.8659 121.593 62.8659C121.593 62.8659 122.204 55.8259 119.78 36.9376C117.641 20.269 121.418 7.8545 123.053 3.49684C118.972 7.05881 114.758 10.3319 110.42 13.3171C108.852 14.3999 107.259 15.4309 105.659 16.4317C103.161 25.2765 109.731 38.1876 110.496 51.5293C111.068 61.5823 98.7444 73.7826 98.7444 73.7826C98.7444 73.7826 108.62 61.7746 103.283 47.1672C99.0165 35.5033 103.555 21.6163 105.553 16.4912C100.454 19.6641 95.1926 22.4368 89.7875 24.8109C89.9869 27.606 90.5754 36.949 90.196 46.3324C89.7506 57.3799 84.1672 81.9634 84.1672 81.9634C84.1672 81.9634 82.0057 72.2599 81.8626 58.283C81.738 46.9959 87.7687 29.4103 89.3481 24.9983C84.8573 26.9417 80.2718 28.6097 75.5925 29.9925C75.4777 32.8183 75.0419 42.3745 74.0786 52.3076C72.9158 64.1496 61.5306 92.9784 61.5306 92.9784C61.5306 92.9784 62.3654 84.1998 63.9608 65.4004C65.3285 49.2386 72.938 34.0894 75.0554 30.1512C70.8327 31.3779 66.5416 32.371 62.1811 33.1405C59.4977 35.4065 51.0967 40.8088 31.2316 41.7786C7.87522 42.9249 0.275103 41.5121 0.275103 41.5121C0.275103 41.5121 39.4315 25.3687 61.5606 31.6214C65.5108 30.9431 69.3382 30.0758 73.03 29.0479C68.6819 27.1206 53.1672 19.839 39.3963 8.42713C23.193 -4.99474 18.8535 -9.57965 18.8535 -9.57965C18.8535 -9.57965 50.1052 6.46628 60.0593 15.426C67.9014 22.4938 72.1891 27.2024 73.6477 28.8867C78.6928 27.4581 83.4948 25.7307 88.0681 23.7651C83.8521 21.8201 67.9418 13.9393 60.2871 2.2043C51.4121 -11.4008 38.9993 -16.4237 38.9993 -16.4237C38.9993 -16.4237 51.9684 -14.5422 66.472 1.36365C78.5091 14.5547 86.153 21.5946 88.4132 23.6186C94.4017 21.0208 99.9852 18.0304 105.173 14.7569C101.353 13.4113 89.7238 8.70672 80.8779 -1.46651C70.1468 -13.8075 53.4441 -24.4781 53.4441 -24.4781C53.4441 -24.4781 77.4078 -16.1611 91.9882 -2.4619C102.509 7.41896 105.372 12.2155 106.157 14.125C112.035 10.351 117.393 6.23323 122.251 1.98109C118.834 1.265 107.673 -1.69712 95.2247 -11.6842C80.2542 -23.6895 68.6963 -33.0026 68.6963 -33.0026C68.6963 -33.0026 111.955 -14.2436 122.842 1.46167C127.65 -2.78521 131.958 -7.16647 135.787 -11.4727C132.752 -11.7686 123.508 -13.3211 114.618 -21.6306C103.779 -31.7579 97.6378 -34.0558 89.1115 -36.0866C89.1115 -36.0866 107.331 -34.8244 115.675 -28.0766C125.438 -20.1818 130.418 -13.325 135.923 -11.6382C138.473 -14.5094 140.808 -17.3505 142.935 -20.1021C159.998 -42.1292 167.537 -62.9473 167.616 -63.1477C167.766 -63.5689 168.228 -63.7838 168.657 -63.6361C168.715 -63.6209 168.762 -63.587 168.81 -63.5628C169.123 -63.3664 169.277 -62.9768 169.153 -62.6126C169.083 -62.4016 161.464 -41.383 144.272 -19.1601C141.94 -16.1408 139.528 -13.2374 137.057 -10.4481C137.948 -6.78953 141.262 6.57645 144.024 15.2278C147.244 25.324 136.4 48.5988 136.4 48.5988C136.4 48.5988 141.098 26.178 136.645 15.7423Z" fill="#FCF4DF"/>
</svg>
